<svg xmlns="http://www.w3.org/2000/svg" width="100" height="100" viewBox="0 0 100 100">
  <g id="Group_7941" data-name="Group 7941" transform="translate(20273 -5691)">
    <rect id="Rectangle_752" data-name="Rectangle 752" width="100" height="100" transform="translate(-20273 5691)" fill="#fff" opacity="0"/>
    <g id="batter_54x54" transform="translate(-20263.5 5703.9)">
      <path id="Rectangle_163_1_" d="M36.744,37.2H53.478a2.942,2.942,0,0,1,2.944,2.944v7.9a2.942,2.942,0,0,1-2.944,2.944H36.744A2.942,2.942,0,0,1,33.8,48.046V39.989A3.021,3.021,0,0,1,36.744,37.2Z" transform="translate(17.747 15.989)" fill="#d8e1e6"/>
      <path id="Rectangle_164_1_" d="M3.049,35.9H30.785a1.553,1.553,0,0,1,1.549,1.549V39a1.553,1.553,0,0,1-1.549,1.549H3.049A1.553,1.553,0,0,1,1.5,39V37.449A1.806,1.806,0,0,1,3.049,35.9Z" transform="translate(0 15.275)" fill="#d8e1e6"/>
      <path id="Rectangle_165_1_" d="M13.184,27.2h3.254a2.447,2.447,0,0,1,2.479,2.479V41.145a2.447,2.447,0,0,1-2.479,2.479H13.184A2.447,2.447,0,0,1,10.7,41.145V29.679A2.358,2.358,0,0,1,13.184,27.2Z" transform="translate(5.05 10.495)" fill="#242a3c" stroke="#242a3c" stroke-width="1"/>
      <path id="Rectangle_166_1_" d="M43.184,27.2h3.254a2.447,2.447,0,0,1,2.479,2.479V41.145a2.447,2.447,0,0,1-2.479,2.479H43.184A2.447,2.447,0,0,1,40.7,41.145V29.679A2.358,2.358,0,0,1,43.184,27.2Z" transform="translate(21.534 10.495)" fill="#242a3c"/>
      <path id="Rectangle_166-2_1_" d="M44.693,26.7h.775a4.5,4.5,0,0,1,4.493,4.493h0V40.18a4.5,4.5,0,0,1-4.493,4.493h-.775A4.5,4.5,0,0,1,40.2,40.18h0V31.193A4.5,4.5,0,0,1,44.693,26.7Zm0,1.549a3.108,3.108,0,0,0-3.1,3.1h0v8.987a3.108,3.108,0,0,0,3.1,3.1h.775a3.108,3.108,0,0,0,3.1-3.1h0V31.348a3.108,3.108,0,0,0-3.1-3.1h-.775Z" transform="translate(21.264 10.22)" fill="#242a3c"/>
      <path id="Path_139_1_" d="M20.117,10.779,14.693,21.006a.569.569,0,0,0-.155.465l-1.549,4.493a.541.541,0,0,1-.155.31L10.51,31.387a5.505,5.505,0,0,0-.31,1.549l.31,9.3a6.287,6.287,0,0,0,6.2,6.043l21.383.465,21.692-.465a6.251,6.251,0,0,0,6.2-6.353V32.472a4.126,4.126,0,0,0-.465-1.859l-2.634-4.338c-.155-.31-.31-.465-.31-.775l-1.395-4.8c0-.155-.155-.31-.155-.62l-4.958-9.607A4.113,4.113,0,0,0,52.5,8.3H23.68A4.684,4.684,0,0,0,20.117,10.779Z" transform="translate(4.78 0.11)" fill="#fff"/>
      <path id="Path_140_1_" d="M9.748,16.1s3.409-1.549,4.493-.465a4.266,4.266,0,0,1,.775,3.1l-.62,1.7s-4.029,0-5.268-1.085C8.043,18.116,9.748,16.1,9.748,16.1Z" transform="translate(3.993 3.929)" fill="#fff"/>
      <path id="Path_141_1_" d="M48.782,16.1s-3.409-1.549-4.493-.465a4.266,4.266,0,0,0-.775,3.1l.62,1.7s4.029,0,5.268-1.085C50.487,18.116,48.782,16.1,48.782,16.1Z" transform="translate(23.063 3.929)" fill="#fff"/>
      <path id="Path_142_1_" d="M16.082,16.928l3.254-6.2a1.781,1.781,0,0,1,1.395-.93H49.086a1.489,1.489,0,0,1,1.395.93l3.254,6.2a1.407,1.407,0,0,1,0,1.549,1.627,1.627,0,0,1-1.395.775H17.477a1.627,1.627,0,0,1-1.395-.775A1.407,1.407,0,0,1,16.082,16.928Z" transform="translate(7.885 0.934)" fill="#242a3c"/>
      <path id="Rectangle_167_1_" d="M15.789,24.1H57.16A3.021,3.021,0,0,1,60.1,26.889v5.423a5.159,5.159,0,0,1-5.113,5.113H18.113A5.059,5.059,0,0,1,13,32.312V27.044A2.913,2.913,0,0,1,15.789,24.1Z" transform="translate(6.319 8.791)" fill="#d8e1e6"/>
      <path id="Path_143_1_" d="M12.275,20.732l2.014-1.549a1.162,1.162,0,0,1,1.395,0l6.973,4.493a1.2,1.2,0,0,1,.31,1.549l-.465.465-3.874,1.7a.988.988,0,0,1-.93,0l-5.423-1.859a1.165,1.165,0,0,1-.775-1.085l.155-2.789A3.241,3.241,0,0,1,12.275,20.732Z" transform="translate(5.495 5.962)" fill="#d8e1e6"/>
      <path id="Path_144_1_" d="M47.619,20.563l-1.7-1.24a1.41,1.41,0,0,0-1.859,0l-6.2,3.874a1.524,1.524,0,0,0-.465,2.169c.155.31.465.465.62.62l2.944,1.395a1.324,1.324,0,0,0,1.085,0L47,25.676a1.685,1.685,0,0,0,1.085-1.549L47.929,21.8a.837.837,0,0,0-.31-1.24Z" transform="translate(19.578 5.975)" fill="#d8e1e6"/>
      <path id="Path_145_1_" d="M42.814,28.275l-3.1,4.338a1.655,1.655,0,0,0,1.395,2.634h1.859a3.547,3.547,0,0,0,2.634-1.24l.93-1.085a4.149,4.149,0,0,0,.775-3.564h0A2.652,2.652,0,0,0,44.828,27.5h-.465a1.907,1.907,0,0,0-1.549.775Z" transform="translate(20.819 10.659)" fill="#242a3c"/>
      <path id="Path_146_1_" d="M20.373,26.92l1.395-.465a2.3,2.3,0,0,1,1.085-.155H45.32a1.965,1.965,0,0,1,.93.155l.31.155a3.25,3.25,0,0,1,2.014,2.014,3.067,3.067,0,0,1-.62,2.789l-1.859,2.169a3.3,3.3,0,0,1-2.324,1.085H23.162a3.153,3.153,0,0,1-2.324-.93l-1.549-1.7a3.692,3.692,0,0,1-.775-2.789A2.705,2.705,0,0,1,20.373,26.92Z" transform="translate(9.327 10)" fill="#242a3c"/>
      <path id="Path_147_1_" d="M16.136,28.275l3.1,4.338a1.655,1.655,0,0,1-1.395,2.634H15.981a3.547,3.547,0,0,1-2.634-1.24l-.93-1.085a4.149,4.149,0,0,1-.775-3.564h0A2.652,2.652,0,0,1,14.121,27.5h.465a1.907,1.907,0,0,1,1.549.775Z" transform="translate(5.507 10.659)" fill="#242a3c"/>
      <path id="Path_139-2_1_" d="M14.3,20.806c-.155.155-.155.465-.31.62l-1.549,4.493c0,.155,0,.155-.155.31L9.965,31.342A4.126,4.126,0,0,0,9.5,33.2l.31,9.3a7.235,7.235,0,0,0,6.973,6.818l21.692.465,21.847-.465a6.944,6.944,0,0,0,6.973-6.973V32.891a3.557,3.557,0,0,0-.62-2.169l-2.634-4.338c-.155-.155-.155-.465-.31-.62l-1.395-4.8a.805.805,0,0,0-.31-.62l-4.958-9.607A4.9,4.9,0,0,0,52.73,8.1H24.065a4.7,4.7,0,0,0-4.184,2.479ZM24.065,9.34H52.73A3.187,3.187,0,0,1,55.674,11.2l4.958,9.607c0,.155.155.31.155.465l1.395,4.8.465.93,2.634,4.338a2.5,2.5,0,0,1,.465,1.395v9.452a5.555,5.555,0,0,1-5.578,5.578l-21.692.465-21.383-.465a5.623,5.623,0,0,1-5.578-5.423l-.31-9.3a1.669,1.669,0,0,1,.31-1.24l2.324-5.113c0-.155.155-.31.155-.465l1.549-4.493c0-.155.155-.31.155-.465l5.423-10.226A3.667,3.667,0,0,1,24.065,9.34Z" transform="translate(4.396)" fill="#242a3c"/>
      <path id="Path_140-2_1_" d="M9.4,15.885h0l.31-.155a.541.541,0,0,1,.31-.155c.31-.155.62-.155.775-.31a4.524,4.524,0,0,1,1.395-.31,3,3,0,0,1,2.789.465,4.7,4.7,0,0,1,.93,3.719l-.775,2.169H13.737c-.62,0-1.395-.155-2.014-.155a4.455,4.455,0,0,1-2.789-1.085,2.129,2.129,0,0,1-.62-1.859l.465-1.395C8.934,16.349,9.244,16.195,9.4,15.885Zm.775,1.549a2.2,2.2,0,0,0-.31.93.932.932,0,0,0,.155.62,5.049,5.049,0,0,0,2.014.62,7.544,7.544,0,0,0,1.859.155h.31l.31-1.085a2.593,2.593,0,0,0-.62-2.324,2.188,2.188,0,0,0-1.395-.155c-.465.155-.775.155-1.24.31a3.387,3.387,0,0,0-.775.465C10.329,17.124,10.174,17.279,10.174,17.434Z" transform="translate(3.722 3.681)" fill="#242a3c"/>
      <path id="Path_141-2_1_" d="M49.284,15.73a.541.541,0,0,0-.31-.155c-.31-.155-.62-.155-.775-.31a4.524,4.524,0,0,0-1.395-.31,2.707,2.707,0,0,0-2.634.465,4.073,4.073,0,0,0-.93,3.719l.62,1.7.155.465H45.41c.62,0,1.395-.155,2.014-.155a4.455,4.455,0,0,0,2.789-1.085,2.129,2.129,0,0,0,.62-1.859l-.465-1.395a1.547,1.547,0,0,0-.62-.775l-.465-.31Zm-.465,1.7a2.2,2.2,0,0,1,.31.93.932.932,0,0,1-.155.62,5.049,5.049,0,0,1-2.014.62,7.544,7.544,0,0,1-1.859.155h-.31l-.31-1.085a3.139,3.139,0,0,1,.62-2.324,2.15,2.15,0,0,1,1.395,0c.465.155.775.155,1.24.31a2.2,2.2,0,0,0,.93.31A.569.569,0,0,0,48.819,17.434Z" transform="translate(22.871 3.681)" fill="#242a3c"/>
      <path id="Path_142-2_1_" d="M15.577,16.837l3.254-6.2A2.473,2.473,0,0,1,21,9.4H49.355a2.473,2.473,0,0,1,2.169,1.24l3.254,6.2a2.469,2.469,0,0,1,0,2.324,2.258,2.258,0,0,1-2.014,1.085H17.746a2.649,2.649,0,0,1-2.014-1.085A2.484,2.484,0,0,1,15.577,16.837Zm1.395.62a.988.988,0,0,0,0,.93.852.852,0,0,0,.775.465H52.609a.852.852,0,0,0,.775-.465.988.988,0,0,0,0-.93l-3.254-6.2a.852.852,0,0,0-.775-.465H21a.852.852,0,0,0-.775.465Z" transform="translate(7.616 0.714)" fill="#242a3c"/>
      <path id="Path_143-2_1_" d="M12.038,20.481l2.014-1.549a2.184,2.184,0,0,1,2.169-.155l6.973,4.493a1.977,1.977,0,0,1,.62,2.634,1.867,1.867,0,0,1-.775.775l-3.874,1.7a2.15,2.15,0,0,1-1.395,0l-5.423-1.859a1.8,1.8,0,0,1-1.24-1.859l.155-2.789A1.627,1.627,0,0,1,12.038,20.481Zm.775,1.085h0c-.155,0-.155.155-.155.31L12.5,24.665c0,.155.155.31.31.465l5.423,1.859h.31l3.874-1.7c.155-.155.31-.31.155-.62l-.155-.155-6.973-4.493a.291.291,0,0,0-.465,0Z" transform="translate(5.266 5.748)" fill="#242a3c"/>
      <path id="Path_144-2_1_" d="M46.619,19.072a2.346,2.346,0,0,0-2.634-.155l-6.2,3.874a2.257,2.257,0,0,0-.775,3.1,6.739,6.739,0,0,0,1.085.93l2.944,1.395a2.132,2.132,0,0,0,1.7.155l4.958-1.7a2.2,2.2,0,0,0,1.549-2.324L49.1,22.016a2.141,2.141,0,0,0-.93-1.7ZM47.7,22.016l.155,2.324c0,.31-.155.775-.62.775l-4.958,1.7h-.62l-2.944-1.24a.8.8,0,0,1-.465-1.085.333.333,0,0,1,.31-.31l6.2-3.874a.988.988,0,0,1,.93,0l1.7,1.24C47.7,21.552,47.7,21.861,47.7,22.016Z" transform="translate(19.339 5.762)" fill="#242a3c"/>
      <path id="Path_145-2_1_" d="M39.354,32.423A2.39,2.39,0,0,0,39.2,34.9a2.2,2.2,0,0,0,2.169,1.24h1.859a3.9,3.9,0,0,0,3.1-1.395l.93-1.085a4.553,4.553,0,0,0,.93-4.184A3.489,3.489,0,0,0,44.933,27h-.465a2.258,2.258,0,0,0-2.014,1.085Zm5.113-3.874h.465a2.171,2.171,0,0,1,1.859,1.395,3.067,3.067,0,0,1-.62,2.789l-.93,1.24a2.5,2.5,0,0,1-2.014.93H41.369a1.1,1.1,0,0,1-.93-.465,1.323,1.323,0,0,1,0-1.085l3.1-4.338A1.339,1.339,0,0,1,44.468,28.549Z" transform="translate(20.56 10.385)" fill="#242a3c"/>
      <path id="Path_146-2_1_" d="M21.759,26.055A3.851,3.851,0,0,1,23,25.9H45.466a3.412,3.412,0,0,1,1.24.155l.31.155a3.624,3.624,0,0,1,2.479,2.479A3.827,3.827,0,0,1,48.72,32.1L46.86,34.267a3.816,3.816,0,0,1-2.944,1.395H23.463a3.628,3.628,0,0,1-2.789-1.24l-1.549-1.7a3.6,3.6,0,0,1-1.085-3.564A3.836,3.836,0,0,1,20.52,26.52Zm-.775,1.859a3.021,3.021,0,0,0-1.549,1.549,2.3,2.3,0,0,0,.62,2.169l1.549,1.7a2.488,2.488,0,0,0,1.7.775H44.071a2.859,2.859,0,0,0,1.859-.775l1.859-2.169A2.689,2.689,0,0,0,48.255,29a1.99,1.99,0,0,0-1.549-1.549l-.31-.155a1.4,1.4,0,0,0-.775-.155H23.154a1.161,1.161,0,0,0-.775.155Z" transform="translate(9.026 9.78)" fill="#242a3c"/>
      <path id="Path_147-2_1_" d="M17,28.085l3.1,4.338a2.39,2.39,0,0,1,.155,2.479,2.2,2.2,0,0,1-2.169,1.24H16.223a3.9,3.9,0,0,1-3.1-1.395l-.93-1.085a4.553,4.553,0,0,1-.93-4.184A3.489,3.489,0,0,1,14.519,27h.465A3.24,3.24,0,0,1,17,28.085Zm-1.24.93a.852.852,0,0,0-.775-.465h-.465a2.171,2.171,0,0,0-1.859,1.395,3.067,3.067,0,0,0,.62,2.789l.93,1.085a2.5,2.5,0,0,0,2.014.93h1.859a1.1,1.1,0,0,0,.93-.465,1.323,1.323,0,0,0,0-1.085Z" transform="translate(5.265 10.385)" fill="#242a3c"/>
      <path id="Path_9531" data-name="Path 9531" d="M58.224,30.034V50.022a2.715,2.715,0,0,1-2.634,2.634H30.334A2.715,2.715,0,0,1,27.7,50.022V30.034A2.715,2.715,0,0,1,30.334,27.4H55.59a2.612,2.612,0,0,1,2.634,2.634Z" transform="translate(14.396 10.604)" fill="#fff" stroke="#242a3c" stroke-miterlimit="10" stroke-width="1"/>
      <path id="Path_9532" data-name="Path 9532" d="M50.3,28A15.574,15.574,0,0,1,34.808,43.65H28.3V30.324c0-1.395.465-2.324,1.859-2.324H50.3Z" transform="translate(14.725 10.934)" fill="#d8e1e6"/>
      <path id="Path_9533" data-name="Path 9533" d="M34.448,29.048H29.8V25.795A1.389,1.389,0,0,1,31.195,24.4h2.014A1.389,1.389,0,0,1,34.6,25.795l-.155,3.254Z" transform="translate(15.55 8.956)" fill="#e83c33" stroke="#242a3c" stroke-miterlimit="10" stroke-width="1"/>
      <path id="Path_9534" data-name="Path 9534" d="M46.848,29.048H42.2V25.795A1.389,1.389,0,0,1,43.595,24.4h2.014A1.389,1.389,0,0,1,47,25.795v3.254Z" transform="translate(22.363 8.956)" fill="#e83c33" stroke="#242a3c" stroke-miterlimit="10" stroke-width="1"/>
      <path id="Path_9535" data-name="Path 9535" d="M36.5,36.26l1.859.62L36.5,39.514a1.087,1.087,0,0,0,.93,1.7,1.339,1.339,0,0,0,.93-.465l2.789-3.874a1.076,1.076,0,0,0-.62-1.7l-1.859-.62,1.859-2.634a1.117,1.117,0,1,0-1.859-1.24l-2.789,3.874a1.076,1.076,0,0,0,.62,1.7Z" transform="translate(18.769 12.126)" fill="#242a3c"/>
      <path id="Path_9536" data-name="Path 9536" d="M48.731,28.235l1.085.31-1.085,1.395a.568.568,0,0,0,.465.93c.155,0,.31-.155.465-.31l1.549-2.014a.622.622,0,0,0-.31-.93l-1.085-.31L50.9,25.911c.155-.31.155-.62-.155-.775s-.62-.155-.775.155l-1.549,2.014a.745.745,0,0,0,.31.93Z" transform="translate(25.748 9.305)" fill="#d8e1e6" stroke="#242a3c" stroke-miterlimit="10" stroke-width="0.5"/>
      <path id="Path_9537" data-name="Path 9537" d="M50.967,25.835l1.085.31-1.085,1.395a.568.568,0,0,0,.465.93c.155,0,.31-.155.465-.31l1.549-2.014a.622.622,0,0,0-.31-.93l-1.085-.31,1.085-1.395c.155-.31.155-.62-.155-.775s-.62-.155-.775.155l-1.549,2.014c-.31.31-.155.775.31.93Z" transform="translate(26.921 7.986)" fill="#d8e1e6" stroke="#242a3c" stroke-miterlimit="10" stroke-width="0.5"/>
      <path id="Path_9538" data-name="Path 9538" d="M49.267,23.335l1.085.31-1.085,1.395a.568.568,0,0,0,.465.93c.155,0,.31-.155.465-.31l1.549-2.014a.622.622,0,0,0-.31-.93l-1.085-.31,1.085-1.395c.155-.31.155-.62-.155-.775s-.62-.155-.775.155l-1.549,2.014c-.31.31-.155.775.31.93Z" transform="translate(25.987 6.612)" fill="#d8e1e6" stroke="#242a3c" stroke-miterlimit="10" stroke-width="0.5"/>
      <path id="Path_9539" data-name="Path 9539" d="M31.33,33.454h.465v.465a.93.93,0,1,0,1.859,0v-.465h.465a.93.93,0,0,0,0-1.859h-.465V31.13a.93.93,0,0,0-1.859,0v.465H31.33a.93.93,0,0,0,0,1.859Z" transform="translate(15.879 12.143)" fill="#e83c33"/>
      <path id="Path_9540" data-name="Path 9540" d="M42.54,32.959h2.789a.93.93,0,1,0,0-1.859H42.54a1,1,0,0,0-.93.93C41.456,32.495,41.921,32.959,42.54,32.959Z" transform="translate(22.023 12.637)" fill="#e83c33"/>
      <path id="Path_9541" data-name="Path 9541" d="M27.9,39.8H57.495v2.634H27.9Z" transform="translate(14.506 17.418)" fill="#e83c33" stroke="#242a3c" stroke-miterlimit="10" stroke-width="1"/>
    </g>
  </g>
</svg>
