<?xml version="1.0" encoding="utf-8"?>
<!-- Generator: Adobe Illustrator 22.0.0, svg Export Plug-In . svg Version: 6.00 Build 0)  -->
<svg width="100px" height="100px" version="1.1" id="Layer_1" xmlns="http://www.w3.org/2000/svg" xmlns:xlink="http://www.w3.org/1999/xlink" x="0px" y="0px"
	 viewBox="0 0 54 54" style="enable-background:new 0 0 54 54;" xml:space="preserve">
<style type="text/css">
	.st0{fill:#6899D1;}
	.st1{fill:#D6DFE8;}
	.st2{fill:#F5F7FA;}
	.st3{fill:#E7E9ED;}
	.st4{fill:#D8E1E6;}
	.st5{fill:#FFFFFF;stroke:#242A3C;}
	.st6{fill:#E83E33;}
	.st7{fill:#242A3C;}
	.st8{fill:#FFFFFF;}
</style>
<g>
	<g>
		<path class="st0" d="M41.8,12.7c3,0,5.4,2.4,5.4,5.4c0,3-2.4,5.4-5.4,5.4c-3,0-5.4-2.4-5.4-5.4C36.4,15.1,38.8,12.7,41.8,12.7z"/>
	</g>
	<g>
		<path class="st1" d="M35.9,15.3c0,0,0.1-0.1,0.1-0.1c0.1-0.1,0.2-0.3,0.2-0.4c0.2-0.3,0.1-0.6-0.2-0.7c-0.3-0.2-0.6-0.1-0.7,0.2
			c-0.1,0.2-0.2,0.3-0.3,0.5c-0.1,0.3,0,0.6,0.2,0.7C35.5,15.5,35.8,15.5,35.9,15.3L35.9,15.3z"/>
		<path class="st1" d="M37.2,22.7c-1.4-1.4-2.1-3.5-1.8-5.5c0-0.3-0.2-0.6-0.4-0.6c-0.3,0-0.6,0.2-0.6,0.4c-0.4,2.4,0.4,4.8,2.1,6.4
			c0,0,0,0,0,0.1c0.2,0.2,0.5,0.2,0.8,0C37.4,23.2,37.4,22.9,37.2,22.7L37.2,22.7z"/>
		<path class="st1" d="M44.7,12.4c0.1,0.1,0.3,0.2,0.4,0.2c0.2,0.1,0.5,0.1,0.7-0.1c0,0,0.1-0.1,0.1-0.1c0.2-0.3,0.1-0.6-0.2-0.7
			c-0.2-0.1-0.3-0.2-0.5-0.3c-0.3-0.1-0.6,0-0.7,0.2C44.3,11.9,44.4,12.2,44.7,12.4L44.7,12.4z"/>
		<path class="st1" d="M42.9,10.7c-2.4-0.4-4.8,0.4-6.5,2.1c0,0,0,0,0,0l0,0c-0.2,0.2-0.2,0.5,0,0.8c0.2,0.2,0.6,0.2,0.8,0
			c1.4-1.4,3.5-2.1,5.5-1.8c0.2,0,0.3,0,0.5-0.2c0.1-0.1,0.1-0.2,0.2-0.3C43.4,11,43.2,10.7,42.9,10.7L42.9,10.7z"/>
		<path class="st1" d="M46.3,12.8c-0.2,0.2-0.2,0.6,0,0.8c1.5,1.5,2.1,3.5,1.8,5.6c0,0.3,0.2,0.6,0.4,0.6c0.2,0,0.3,0,0.5-0.2
			c0.1-0.1,0.1-0.2,0.2-0.3c0.4-2.4-0.4-4.8-2.1-6.5l0,0C46.9,12.6,46.5,12.6,46.3,12.8L46.3,12.8z"/>
		<path class="st1" d="M38.9,23.8c-0.1-0.1-0.3-0.2-0.4-0.2c-0.3-0.2-0.6-0.1-0.7,0.2c-0.2,0.3-0.1,0.6,0.2,0.7
			c0.2,0.1,0.3,0.2,0.5,0.3c0.2,0.1,0.5,0.1,0.6-0.1c0,0,0.1-0.1,0.1-0.1C39.2,24.3,39.1,24,38.9,23.8L38.9,23.8z"/>
		<path class="st1" d="M47.5,21c-0.1,0.1-0.2,0.3-0.2,0.4c-0.2,0.3-0.1,0.6,0.2,0.7c0.2,0.1,0.5,0.1,0.7-0.1c0,0,0.1-0.1,0.1-0.1
			c0.1-0.2,0.2-0.3,0.3-0.5c0.1-0.3,0-0.6-0.2-0.7C48,20.7,47.7,20.8,47.5,21L47.5,21z"/>
		<path class="st1" d="M46.3,22.7c-1.4,1.4-3.5,2.1-5.5,1.8c-0.3,0-0.6,0.2-0.6,0.4c0,0.3,0.2,0.6,0.4,0.6c2.4,0.4,4.8-0.4,6.5-2.1
			l0,0c0.2-0.2,0.2-0.5,0-0.8C46.9,22.4,46.5,22.4,46.3,22.7L46.3,22.7z"/>
	</g>
	<path class="st1" d="M42.3,20v-3.8l0.4-0.4c0.2-0.2,0.2-0.5,0-0.8c-0.2-0.2-0.5-0.2-0.8,0l-0.2,0.2L41.6,15c-0.2-0.2-0.5-0.2-0.8,0
		c-0.2,0.2-0.2,0.5,0,0.8l0.4,0.4V20l-0.4,0.4c-0.2,0.2-0.2,0.5,0,0.8c0.1,0.1,0.2,0.2,0.4,0.2c0.1,0,0.3-0.1,0.4-0.2l0.2-0.2
		l0.2,0.2c0.1,0.1,0.2,0.2,0.4,0.2c0.1,0,0.3-0.1,0.4-0.2c0.2-0.2,0.2-0.5,0-0.8L42.3,20z"/>
	<path class="st2" d="M44.5,16.7l-0.2-0.1l0.1-0.2c0.1-0.3-0.1-0.6-0.4-0.7c-0.3-0.1-0.6,0.1-0.7,0.4l-0.1,0.5l-3.3,1.9l-0.5-0.1
		c-0.3-0.1-0.6,0.1-0.7,0.4c-0.1,0.3,0.1,0.6,0.4,0.7l0.2,0.1l-0.1,0.2c-0.1,0.3,0.1,0.6,0.4,0.7c0,0,0.1,0,0.1,0
		c0.2,0,0.5-0.2,0.5-0.4l0.1-0.5l3.3-1.9l0.5,0.1c0,0,0.1,0,0.1,0c0.2,0,0.5-0.2,0.5-0.4C45,17.1,44.8,16.8,44.5,16.7z"/>
	<g>
		<g>
			<g>
				<path class="st3" d="M43.6,19.7c-0.1,0-0.2,0-0.3-0.1l-3.7-2.1c-0.3-0.1-0.3-0.5-0.2-0.7c0.1-0.3,0.5-0.3,0.7-0.2l3.7,2.1
					c0.3,0.1,0.3,0.5,0.2,0.7C44,19.6,43.8,19.7,43.6,19.7z"/>
			</g>
			<g>
				<path class="st3" d="M44.9,18.8c-0.1-0.3-0.4-0.5-0.7-0.4l-0.7,0.2c-0.1,0-0.1,0-0.2,0.1c0,0,0,0,0,0c0,0,0,0-0.1,0c0,0,0,0,0,0
					c0,0,0,0.1-0.1,0.1c0,0,0,0,0,0c-0.1,0.1-0.1,0.3-0.1,0.4c0,0,0,0,0,0l0.2,0.7c0.1,0.2,0.3,0.4,0.5,0.4v0c0,0,0.1,0,0.1,0
					c0.3-0.1,0.5-0.4,0.4-0.7l-0.1-0.2l0.2-0.1C44.8,19.4,45,19.1,44.9,18.8z"/>
				<path class="st3" d="M40.2,16.2c-0.1-0.3-0.4-0.5-0.7-0.4c-0.3,0.1-0.5,0.4-0.4,0.7l0.1,0.2L39,16.7c-0.3,0.1-0.5,0.4-0.4,0.7
					c0.1,0.2,0.3,0.4,0.5,0.4c0,0,0.1,0,0.1,0l0.7-0.2c0,0,0,0,0,0c0.3-0.1,0.5-0.4,0.4-0.7L40.2,16.2z"/>
			</g>
		</g>
	</g>
</g>
<g>
	<path id="Rectangle_152_5_" class="st4" d="M10,38.1h36.9c0.6,0,1.1,0.5,1.1,1.1v1.4c0,0.6-0.5,1.1-1.1,1.1H10
		c-0.6,0-1.1-0.5-1.1-1.1v-1.4C9,38.6,9.4,38.1,10,38.1z"/>
	<path id="Path_112_5_" class="st5" d="M7.4,23.6l-3.7,4c-0.5,0.6-0.9,1.4-0.9,2.2v0.4c0,0.4-0.1,0.7-0.2,1.1l-0.9,2.6
		c-0.4,1.1-0.2,2.3,0.6,3.1l0.5,0.6c0.6,0.7,1.5,1.1,2.4,1.1l44.2,0.4c1.7,0,3.2-1.4,3.2-3.1c0-0.1,0-0.2,0-0.3l-0.2-2.1
		c0-0.4-0.1-0.8-0.3-1.2c-0.4-0.8-1.1-1.3-1.9-1.6L42,28.1c-0.2-0.1-0.3-0.1-0.5-0.2l-8.5-4.4c-2-1.1-4.3-1.6-6.6-1.7l-14.2-0.3
		C10.4,21.5,8.7,22.2,7.4,23.6z"/>
	<g id="Group_196_5_" transform="translate(3.029 15.498)">
		<path id="Path_113_5_" class="st1" d="M2.1,21.7c-0.9-0.1-1.6-0.8-1.8-1.7c-0.1-0.3,0-0.6,0-0.9c0.4-1.2,2.7-5.4,8.4-3.3
			s6.1,6.2,3,6.7C9.5,22.7,4.3,22,2.1,21.7z"/>
	</g>
	<path id="Path_115_5_" class="st6" d="M44.8,29c-0.2-0.1-0.4-0.1-0.6,0c-0.3,0.3-0.3,0.8,0,1.1c0,0,0.1,0.1,0.1,0.1l3.5,2.5
		c0.5,0.4,1.2,0.5,1.9,0.3c0.3,0,0.6,0,0.9,0.1c0.6,0,1-0.4,1-1c0-0.1,0-0.3-0.1-0.4l-0.1-0.4c-0.1-0.3-0.4-0.5-0.6-0.6L44.8,29z"/>
	<path id="Path_115-2_5_" class="st7" d="M44,28.5l-0.1,0l-0.1,0.1c-0.5,0.5-0.5,1.3,0,1.9c0.1,0.1,0.1,0.1,0.2,0.1l3.5,2.5
		c0.7,0.4,1.5,0.6,2.3,0.4c0.2,0,0.5,0,0.7,0.1l0.1,0c0.8,0,1.5-0.7,1.5-1.5c0-0.2,0-0.4-0.1-0.6l-0.1-0.4c-0.2-0.4-0.5-0.8-1-0.9
		l-6-1.8C44.6,28.4,44.3,28.4,44,28.5z M49.6,32.5c-0.5,0.1-1.1,0.1-1.5-0.2l-3.5-2.4c-0.1-0.1-0.2-0.2-0.1-0.4c0.1,0,0.1,0,0.2,0
		l6,1.8c0.1,0,0.3,0.1,0.3,0.3l0.1,0.4c0.1,0.3,0,0.5-0.3,0.6c0,0-0.1,0-0.1,0C50.3,32.5,50,32.4,49.6,32.5L49.6,32.5z"/>
	<path id="Path_117_5_" class="st7" d="M19.5,23.5l-5.4,0.3c-1.6,0.1-3.1,0.8-4.3,1.9c-0.3,0.3-0.3,0.9,0,1.2
		c0.1,0.1,0.3,0.2,0.5,0.2l9.1,0.7c0.5,0,0.9-0.3,0.9-0.8c0,0,0,0,0-0.1v-2.6C20.3,23.9,20,23.5,19.5,23.5
		C19.5,23.5,19.5,23.5,19.5,23.5L19.5,23.5z"/>
	<circle id="Oval-2_5_" class="st8" cx="42.2" cy="37.1" r="3"/>
	<circle id="Oval-Copy_5_" class="st8" cx="9.7" cy="37.1" r="3"/>
	<path id="Rectangle_153_5_" class="st7" d="M9.4,31.9c3.2,0,5.8,2.6,5.8,5.7c0,3.2-2.6,5.8-5.7,5.8s-5.8-2.6-5.8-5.7c0,0,0,0,0,0
		C3.6,34.5,6.2,31.9,9.4,31.9z M9.4,36c-0.9,0-1.7,0.8-1.7,1.7s0.8,1.7,1.7,1.7s1.7-0.8,1.7-1.7l0,0C11.1,36.7,10.3,36,9.4,36
		C9.4,36,9.4,36,9.4,36L9.4,36z"/>
	<path id="Rectangle_154_5_" class="st7" d="M42.4,31.9c3.2,0.3,5.4,3.2,5.1,6.3c-0.3,3.2-3.2,5.4-6.3,5.1C38,43,35.7,40.2,36.1,37
		C36.4,33.9,39.2,31.6,42.4,31.9L42.4,31.9z M42,36c-0.9-0.1-1.8,0.6-1.9,1.5s0.6,1.8,1.5,1.9c0.9,0.1,1.8-0.6,1.9-1.5l0,0
		C43.6,36.9,42.9,36.1,42,36z"/>
	<path id="Path_118_5_" class="st7" d="M36.7,28.1l-4.8-2.8c-1.6-0.9-3.3-1.5-5.2-1.6l-3-0.2c-0.4,0-0.7,0.2-0.7,0.6
		c0,0,0,0.1,0,0.1l0.3,3.5c0,0.3,0.3,0.6,0.6,0.6l12.4,1c0.4,0,0.7-0.2,0.7-0.6C37,28.5,36.9,28.2,36.7,28.1z"/>
	<path id="Path_117-2_5_" class="st7" d="M14,23.2c-1.7,0.1-3.4,0.8-4.6,2c-0.5,0.5-0.5,1.4,0,1.9c0.2,0.2,0.5,0.4,0.9,0.4l9.1,0.7
		c0.7,0.1,1.4-0.5,1.4-1.3c0,0,0-0.1,0-0.1v-2.6c0-0.7-0.6-1.3-1.3-1.3c0,0,0,0-0.1,0L14,23.2z M19.7,24.1c0.1,0.1,0.1,0.1,0.1,0.2
		v2.6c0,0.2-0.2,0.3-0.3,0.3c0,0,0,0,0,0l-9.1-0.7c-0.2,0-0.3-0.2-0.3-0.4c0-0.1,0-0.2,0.1-0.2c1-1,2.4-1.7,3.9-1.7l5.4-0.3
		C19.6,24,19.7,24,19.7,24.1z"/>
	<path id="Path_118-2_5_" class="st7" d="M37,27.7l-4.8-2.8c-1.6-1-3.5-1.5-5.4-1.7l-3-0.2c-0.6,0-1.2,0.4-1.2,1.1
		c0,0.1,0,0.1,0,0.2l0.3,3.5c0.1,0.6,0.5,1,1.1,1.1l12.4,1c0.6,0,1.2-0.4,1.2-1.1C37.5,28.3,37.3,27.9,37,27.7L37,27.7z M36.5,28.7
		c0,0.1-0.1,0.1-0.1,0.1l-12.4-1c-0.1,0-0.1-0.1-0.1-0.1l-0.3-3.5c0-0.1,0.1-0.2,0.1-0.2c0,0,0,0,0,0l3,0.2c1.7,0.1,3.4,0.6,4.9,1.5
		l4.8,2.8C36.5,28.6,36.5,28.6,36.5,28.7L36.5,28.7z"/>
	<path id="Path_119_5_" class="st6" d="M4.2,27.4L6,27.6c0.4,0,0.7,0.4,0.6,0.8c0,0.2-0.1,0.3-0.2,0.4l-1.5,1.5
		c-0.1,0.1-0.2,0.2-0.4,0.2l-1.1,0.2c-0.4,0.1-0.7-0.2-0.8-0.5c0,0,0-0.1,0-0.1V29c0-0.2,0.1-0.3,0.2-0.5l0.8-0.9
		C3.8,27.5,4,27.4,4.2,27.4z"/>
	<path id="Path_119-2_5_" class="st7" d="M4.3,26.9l1.8,0.2c0.7,0.1,1.1,0.7,1,1.3c0,0.3-0.2,0.5-0.3,0.7l-1.5,1.5
		c-0.2,0.2-0.4,0.3-0.6,0.3l-1.1,0.2c-0.7,0.1-1.3-0.3-1.4-0.9c0-0.1,0-0.2,0-0.2V29c0-0.3,0.1-0.6,0.3-0.8l0.8-0.9
		C3.5,27,3.9,26.9,4.3,26.9z M4.1,27.9c-0.1,0-0.1,0-0.2,0.1l-0.8,0.9c0,0-0.1,0.1-0.1,0.1V30c0,0.1,0.1,0.2,0.2,0.2c0,0,0,0,0,0
		L4.5,30c0,0,0.1,0,0.1-0.1L6,28.5c0.1-0.1,0.1-0.2,0-0.3c0,0-0.1,0-0.1-0.1L4.1,27.9z"/>
	<path id="Path_120_5_" class="st1" d="M51,34.6c0,0,0.4,1.8-0.4,2.6c-0.9,0.9-2.6,0.9-2.6,0S47,35.5,51,34.6z"/>
	<circle id="Ellipse_72_5_" class="st8" cx="17.3" cy="31.1" r="1.4"/>
</g>
<g>
	<g>
		<g>
			<path class="st1" d="M10.4,15.2c-0.2,2.5-2.8,2.8-2.8,2.8c2.2,0.1,2.8,3,2.8,3c0-2.1,2.8-3,2.8-3C11.1,17.9,10.4,15.2,10.4,15.2z
				"/>
		</g>
	</g>
	<g>
		<g>
			<path class="st7" d="M13.2,17.7c-1.8-0.1-2.5-2.6-2.5-2.6c0-0.1-0.2-0.2-0.3-0.2c-0.2,0-0.3,0.1-0.3,0.3
				c-0.2,2.2-2.4,2.5-2.5,2.6c-0.2,0-0.3,0.2-0.3,0.3c0,0.2,0.1,0.3,0.3,0.3c1.9,0.1,2.4,2.7,2.5,2.7c0,0.2,0.2,0.3,0.3,0.3
				c0,0,0,0,0,0c0.2,0,0.3-0.1,0.3-0.3c0-1.8,2.6-2.7,2.6-2.7c0.1-0.1,0.2-0.2,0.2-0.3C13.5,17.8,13.4,17.7,13.2,17.7z M10.3,19.9
				C10,19.3,9.5,18.5,8.7,18c0.6-0.3,1.4-0.8,1.7-1.8c0.3,0.7,0.9,1.5,1.8,1.9C11.6,18.5,10.8,19.1,10.3,19.9z"/>
		</g>
	</g>
	<g>
		<g>
			<path class="st1" d="M5.8,18.8c-0.1,1.7-2,2-2,2C5.4,20.9,5.8,23,5.8,23c0-1.5,2-2.1,2-2.1C6.3,20.7,5.8,18.8,5.8,18.8z"/>
		</g>
	</g>
	<g>
		<g>
			<path class="st7" d="M7.8,20.5c-1.2-0.1-1.7-1.7-1.7-1.8c0-0.1-0.2-0.2-0.3-0.2c-0.2,0-0.3,0.1-0.3,0.3c-0.1,1.5-1.6,1.7-1.7,1.7
				c-0.2,0-0.3,0.2-0.3,0.3c0,0.2,0.1,0.3,0.3,0.3C5.1,21.2,5.4,23,5.4,23c0,0.2,0.2,0.3,0.3,0.3c0,0,0,0,0,0c0.2,0,0.3-0.1,0.3-0.3
				c0-1.2,1.8-1.8,1.8-1.8c0.1,0,0.2-0.2,0.2-0.3C8.1,20.6,7.9,20.5,7.8,20.5z M5.7,22c-0.2-0.4-0.5-0.8-0.9-1.1
				c0.4-0.2,0.8-0.6,1-1c0.2,0.4,0.6,0.8,1.1,1.1C6.5,21.1,6,21.5,5.7,22z"/>
		</g>
	</g>
	<g>
		<g>
			<path class="st1" d="M5.8,13.2c-0.1,1.7-2,2-2,2c1.6,0.1,1.9,2.1,1.9,2.1c0-1.5,2-2.1,2-2.1C6.3,15.1,5.8,13.2,5.8,13.2z"/>
		</g>
	</g>
	<g>
		<g>
			<path class="st7" d="M7.8,14.8c-1.2-0.1-1.7-1.7-1.7-1.8c0-0.1-0.2-0.2-0.3-0.2c-0.2,0-0.3,0.1-0.3,0.3c-0.1,1.5-1.6,1.7-1.7,1.7
				c-0.2,0-0.3,0.2-0.3,0.3c0,0.2,0.1,0.3,0.3,0.3c1.3,0.1,1.6,1.8,1.6,1.9c0,0.2,0.2,0.3,0.3,0.3c0,0,0,0,0,0
				c0.2,0,0.3-0.1,0.3-0.3c0-1.2,1.8-1.8,1.8-1.8c0.1,0,0.2-0.2,0.2-0.3C8.1,15,7.9,14.8,7.8,14.8z M5.7,16.3
				c-0.2-0.4-0.5-0.8-0.9-1.1c0.4-0.2,0.8-0.6,1-1C6,14.5,6.4,15,6.9,15.2C6.5,15.5,6,15.8,5.7,16.3z"/>
		</g>
	</g>
</g>
<g>
	<g>
		<path class="st0" d="M-932-173.1c41.5,0,75.1,33.7,75.1,75.1c0,41.5-33.7,75.1-75.1,75.1s-75.1-33.6-75.1-75.1
			C-1007.1-139.4-973.5-173.1-932-173.1z"/>
	</g>
	<g>
		<path class="st1" d="M-1013.9-136.7c0.5-0.5,1-1.2,1.4-1.9c1.1-2.1,2.2-4.1,3.4-6.2c2.2-3.5,1.1-8.2-2.5-10.3
			c-3.5-2.2-8.2-1.1-10.3,2.5c-1.4,2.4-2.8,4.8-4,7.2c-1.9,3.7-0.4,8.2,3.3,10.1C-1019.6-133.8-1016.1-134.5-1013.9-136.7
			L-1013.9-136.7z"/>
		<path class="st1" d="M-995.8-34.2c-20.3-20.3-29.7-49.3-25.3-77.6c0.6-4.1-2.2-7.9-6.3-8.6c-4.1-0.6-7.9,2.2-8.6,6.3
			c-5.1,33,5.9,66.9,29.1,90c0.2,0.2,0.5,0.5,0.6,0.7c2.9,2.9,7.6,2.9,10.5-0.1C-992.8-26.4-992.8-31.2-995.8-34.2L-995.8-34.2z"/>
		<path class="st1" d="M-891.4-178.4c2.1,1.1,4.2,2.2,6.2,3.4c3,1.8,6.8,1.3,9.2-1.1c0.4-0.4,0.8-0.9,1.1-1.4
			c2.2-3.5,1-8.2-2.5-10.3c-2.4-1.4-4.8-2.8-7.2-4c-3.7-1.9-8.2-0.4-10.1,3.3C-896.6-184.8-895.1-180.3-891.4-178.4L-891.4-178.4z"
			/>
		<path class="st1" d="M-916-201.9c-33-5.1-66.8,6-90.6,29.8c0,0,0,0,0,0l0,0c-2.9,2.9-2.8,7.6,0.1,10.5c2.9,2.9,7.8,2.8,10.7-0.1
			c20.2-20.2,49.2-29.7,77.5-25.4c2.5,0.4,4.8-0.5,6.5-2.1c1.1-1.1,1.9-2.5,2.1-4.2C-909-197.4-911.9-201.3-916-201.9L-916-201.9z"
			/>
		<path class="st1" d="M-868.4-172.4c-2.9,2.9-2.8,7.8,0.1,10.8c20.3,20.3,29.8,49.4,25.3,77.8c-0.6,4.1,2.2,7.9,6.3,8.6
			c2.5,0.4,4.8-0.5,6.5-2.1c1.1-1.1,1.8-2.5,2.1-4.1c5.2-33.1-5.8-67.1-29.5-90.8l-0.3-0.3C-860.9-175.5-865.5-175.4-868.4-172.4
			L-868.4-172.4z"/>
		<path class="st1" d="M-972.8-17.5c-2.1-1.1-4.1-2.2-6.1-3.4c-3.5-2.2-8.2-1-10.3,2.5c-2.2,3.5-1.1,8.2,2.5,10.3
			c2.4,1.4,4.8,2.8,7.2,4c3,1.5,6.5,0.8,8.7-1.4c0.5-0.5,1-1.2,1.4-1.9C-967.6-11.1-969.1-15.6-972.8-17.5L-972.8-17.5z"/>
		<path class="st1" d="M-851.6-57.1c-1.1,2.1-2.2,4.1-3.5,6.2c-2.2,3.5-1.1,8.2,2.5,10.3c3,1.9,6.8,1.3,9.2-1.1
			c0.4-0.4,0.8-0.9,1.1-1.4c1.4-2.4,2.8-4.8,4-7.2c1.9-3.7,0.4-8.2-3.3-10.1C-845.2-62.2-849.7-60.8-851.6-57.1L-851.6-57.1z"/>
		<path class="st1" d="M-868.3-34.2C-888.6-13.9-917.6-4.4-946-8.9c-4.1-0.6-7.9,2.2-8.6,6.3c-0.6,4.1,2.2,7.9,6.3,8.6
			c33.1,5.2,67-5.9,90.6-29.6l0.1-0.1c2.9-2.9,2.9-7.7,0-10.6C-860.6-37.2-865.3-37.1-868.3-34.2L-868.3-34.2z"/>
	</g>
	<path class="st1" d="M-924.5-71v-53.9l5.3-5.3c2.9-2.9,2.9-7.7,0-10.6c-2.9-2.9-7.7-2.9-10.6,0l-2.2,2.2l-2.2-2.2
		c-2.9-2.9-7.7-2.9-10.6,0c-2.9,2.9-2.9,7.7,0,10.6l5.3,5.3V-71l-5.3,5.3c-2.9,2.9-2.9,7.7,0,10.6c1.5,1.5,3.4,2.2,5.3,2.2
		c1.9,0,3.8-0.7,5.3-2.2l2.2-2.2l2.2,2.2c1.5,1.5,3.4,2.2,5.3,2.2c1.9,0,3.8-0.7,5.3-2.2c2.9-2.9,2.9-7.7,0-10.6L-924.5-71z"/>
	<path class="st2" d="M-893.8-117.5l-3-0.8l0.8-3c1.1-4-1.3-8.1-5.3-9.2c-4-1.1-8.1,1.3-9.2,5.3l-1.9,7.3L-959.1-91l-7.2-1.9
		c-4-1.1-8.1,1.3-9.2,5.3c-1.1,4,1.3,8.1,5.3,9.2l3,0.8l-0.8,3c-1.1,4,1.3,8.1,5.3,9.2c0.7,0.2,1.3,0.3,2,0.3c3.3,0,6.4-2.2,7.2-5.6
		l1.9-7.3l46.7-26.9l7.3,1.9c0.7,0.2,1.3,0.3,2,0.3c3.3,0,6.3-2.2,7.2-5.6C-887.4-112.3-889.8-116.4-893.8-117.5z"/>
	<g>
		<g>
			<g>
				<path class="st3" d="M-906-75.4c-1.3,0-2.6-0.3-3.7-1l-52.1-30.1c-3.6-2.1-4.8-6.7-2.7-10.3c2.1-3.6,6.7-4.8,10.3-2.7l52.1,30.1
					c3.6,2.1,4.8,6.7,2.7,10.3C-900.9-76.7-903.4-75.4-906-75.4z"/>
			</g>
			<g>
				<path class="st3" d="M-888.5-87.6c-1.1-4-5.2-6.4-9.2-5.3l-10.3,2.8c-0.9,0.2-1.6,0.6-2.3,1.1c-0.1,0.1-0.2,0.1-0.3,0.2
					c-0.3,0.2-0.5,0.4-0.7,0.7c-0.1,0.1-0.2,0.2-0.3,0.3c-0.3,0.3-0.6,0.7-0.8,1.1c0,0,0,0,0,0.1c-1,1.7-1.3,3.7-0.8,5.7
					c0,0,0,0,0,0l2.7,10.2c0.9,3.4,3.9,5.6,7.2,5.6v0c0.6,0,1.3-0.1,2-0.3c4-1.1,6.4-5.2,5.3-9.2l-0.8-3l3-0.8
					C-889.8-79.5-887.4-83.6-888.5-87.6z"/>
				<path class="st3" d="M-953.5-125.2c-1.1-4-5.2-6.4-9.2-5.3c-4,1.1-6.4,5.2-5.3,9.2l0.8,3l-3,0.8c-4,1.1-6.4,5.2-5.3,9.2
					c0.9,3.4,3.9,5.6,7.2,5.6c0.6,0,1.3-0.1,1.9-0.3l10.2-2.7c0,0,0,0,0.1,0c4-1.1,6.4-5.2,5.3-9.2L-953.5-125.2z"/>
			</g>
		</g>
	</g>
</g>
<g>
	<path id="Rectangle_152_1_" class="st4" d="M-1377,182.1h516.1c8.1,0,14.7,6.6,14.7,14.7v19.6c0,8.1-6.6,14.7-14.7,14.7H-1377
		c-8.1,0-14.7-6.6-14.7-14.7v-19.6C-1391.7,188.7-1385.1,182.1-1377,182.1z"/>
	<path id="Path_112_1_" class="st5" d="M-1413.4-21.1l-52.2,55.7c-7.7,8.2-11.9,19-11.9,30.2v5.4c0,5.1-0.9,10.2-2.7,15.1l-13,35.9
		c-5.4,15-2.4,31.7,8,43.8l6.9,8.1c8.3,9.7,20.4,15.3,33.1,15.4l618.6,5.5c24.4,0.2,44.3-19.4,44.5-43.8c0-1.2,0-2.4-0.1-3.5
		l-2.1-29.3c-0.4-5.8-2-11.4-4.5-16.6c-5.3-10.7-14.7-18.7-26.1-22.3l-113.5-36.1c-2.4-0.7-4.7-1.7-6.9-2.8l-118.6-61.5
		c-28.7-14.9-60.4-22.9-92.6-23.6l-198.3-4.3C-1370.8-50.5-1395.7-40-1413.4-21.1z"/>
	<g id="Group_196_1_" transform="translate(3.029 15.498)">
		<path id="Path_113_1_" class="st1" d="M-1447.8,153.4c-12.5-2-22.5-11.7-24.7-24.1c-0.8-4.2-0.6-8.6,0.6-12.8
			c5.3-17.5,37.4-75.8,117.4-46.7c80,29.2,85.3,87.5,42.6,93.3C-1345.3,167.6-1417.8,157.9-1447.8,153.4z"/>
	</g>
	<path id="Path_115_1_" class="st6" d="M-890.3,54.3c-2.8-0.8-5.8-0.8-8.5,0.2c-4.4,4.4-4.4,11.5,0,15.9c0.5,0.5,1,0.9,1.5,1.3
		l49.5,34.4c7.7,5,17.1,6.6,26,4.4c4.4-0.4,8.9,0,13.2,1.2c7.7,0,14-6.3,14-14c0-1.8-0.3-3.5-1-5.2l-2.1-5.2c-1.6-4-4.9-7-9-8.2
		L-890.3,54.3z"/>
	<path id="Path_115-2_1_" class="st7" d="M-901.1,47.8l-1.6,0.6l-1.2,1.2c-7.1,7.2-7.1,18.8,0.1,25.9c0.8,0.8,1.6,1.5,2.5,2.1
		l49.5,34.4c9.4,6.1,20.8,8.1,31.7,5.4c3.2-0.1,6.4,0.2,9.5,1.1l1.9,0.3c11.6,0,21.1-9.4,21.1-21c0-2.7-0.5-5.4-1.5-7.9l-2.1-5.2
		c-2.4-6-7.4-10.6-13.6-12.4l-83.5-24.7C-892.5,46.2-897,46.3-901.1,47.8z M-822.5,103.3c-7.3,1.9-15,0.8-21.4-3.3l-49.3-34.2
		c-1.6-1.1-2.2-3.2-1.4-5c0.8-0.1,1.6,0,2.4,0.3l83.5,24.7c2,0.6,3.6,2.1,4.4,4l2.1,5.2c1.4,3.5-0.3,7.5-3.9,8.9
		c-0.6,0.2-1.2,0.4-1.8,0.4C-812.6,103.2-817.6,102.8-822.5,103.3L-822.5,103.3z"/>
	<path id="Path_117_1_" class="st7" d="M-1244.7-22.6l-75.3,3.8c-22.5,1.1-43.7,10.6-59.7,26.5c-4.6,4.6-4.6,12,0,16.6
		c2,2,4.6,3.2,7.5,3.4l127.3,9.4c6.5,0.4,12.1-4.5,12.5-11c0-0.2,0-0.5,0-0.7v-36.3c0-6.5-5.3-11.8-11.8-11.7
		C-1244.3-22.6-1244.5-22.6-1244.7-22.6L-1244.7-22.6z"/>
	<circle id="Oval-2_1_" class="st8" cx="-926.7" cy="168.6" r="42.6"/>
	<circle id="Oval-Copy_1_" class="st8" cx="-1381.3" cy="168.6" r="42.6"/>
	<path id="Rectangle_153_1_" class="st7" d="M-1385.6,95.5c44.5,0,80.5,36,80.5,80.5c0,44.5-36,80.5-80.5,80.5s-80.5-36-80.5-80.5
		c0,0,0,0,0,0C-1466,131.5-1430,95.5-1385.6,95.5z M-1385.6,152.3c-13.1,0-23.7,10.6-23.7,23.7s10.6,23.7,23.7,23.7
		c13.1,0,23.7-10.6,23.7-23.7l0,0C-1361.9,162.9-1372.5,152.3-1385.6,152.3C-1385.5,152.3-1385.5,152.3-1385.6,152.3L-1385.6,152.3z
		"/>
	<path id="Rectangle_154_1_" class="st7" d="M-923.4,95.9c44.2,4.8,76.2,44.5,71.4,88.7c-4.8,44.2-44.5,76.2-88.7,71.4
		s-76.2-44.5-71.4-88.7C-1007.3,123.1-967.6,91.2-923.4,95.9L-923.4,95.9z M-929.5,152.4c-13-1.4-24.7,8-26.1,21
		c-1.4,13,8,24.7,21,26.1c13,1.4,24.7-8,26.1-21l0,0C-907.1,165.5-916.5,153.8-929.5,152.4z"/>
	<path id="Path_118_1_" class="st7" d="M-1003.2,42.2l-66.9-39.6c-22-13-46.8-20.7-72.3-22.4l-42.4-2.8c-5-0.3-9.4,3.5-9.7,8.5
		c0,0.5,0,1,0,1.4l4.5,49.1c0.4,4.4,3.9,7.9,8.4,8.3l173.2,14.4c5,0.3,9.4-3.5,9.8-8.5C-998.6,47.3-1000.3,44-1003.2,42.2z"/>
	<path id="Path_117-2_1_" class="st7" d="M-1320.3-25.9c-24.2,1.2-47.2,11.4-64.3,28.6c-7.4,7.4-7.4,19.3,0,26.7
		c3.2,3.2,7.4,5.1,11.9,5.5l127.3,9.4c10.4,0.7,19.4-7.1,20.1-17.5c0-0.4,0-0.8,0-1.2v-36.3c0-10.4-8.5-18.9-18.9-18.8
		c-0.3,0-0.6,0-0.8,0L-1320.3-25.9z M-1241-14.2c0.9,0.9,1.4,2.1,1.4,3.4v36.3c0,2.6-2.1,4.7-4.7,4.6c-0.1,0-0.2,0-0.3,0l-127.2-9.4
		c-2.6-0.2-4.5-2.4-4.3-5c0.1-1.1,0.6-2.1,1.3-2.9c14.7-14.7,34.3-23.4,55-24.4l75.3-3.8C-1243.1-15.6-1241.9-15.1-1241-14.2z"/>
	<path id="Path_118-2_1_" class="st7" d="M-999.6,36.1l-66.9-39.6c-23-13.6-48.8-21.6-75.5-23.4l-42.4-2.8
		c-9-0.6-16.7,6.2-17.3,15.1c-0.1,0.8,0,1.7,0,2.5l4.5,49.1c0.7,7.9,7,14.1,14.8,14.7l173.2,14.4c9,0.7,16.7-6.1,17.4-15
		c0.4-6-2.5-11.8-7.7-15L-999.6,36.1z M-1006,50.6c-0.3,0.9-1.1,1.5-2.1,1.4l-173-14.4c-1-0.1-1.8-0.9-1.9-1.9l-4.5-49.1
		c-0.1-1.1,0.7-2.1,1.9-2.2c0.1,0,0.2,0,0.3,0l42.4,2.8c24.4,1.7,48.1,9,69.2,21.5l66.9,39.6C-1006.1,48.8-1005.7,49.8-1006,50.6
		L-1006,50.6z"/>
	<path id="Path_119_1_" class="st6" d="M-1458.2,32.5l25.2,3.1c5.4,0.7,9.1,5.6,8.5,10.9c-0.3,2.1-1.3,4.1-2.8,5.7l-20.5,20.5
		c-1.4,1.4-3.1,2.3-5,2.7l-16.1,3.2c-5.3,1.1-10.4-2.4-11.5-7.7c-0.1-0.6-0.2-1.3-0.2-1.9V54.2c0-2.5,1-4.9,2.7-6.7l11.4-12
		C-1464.4,33.2-1461.3,32.1-1458.2,32.5z"/>
	<path id="Path_119-2_1_" class="st7" d="M-1457.4,25.5l25.2,3.1c9.2,1.2,15.8,9.6,14.6,18.9c-0.5,3.7-2.2,7.2-4.8,9.8l-20.5,20.5
		c-2.4,2.4-5.4,4-8.6,4.6l-16.1,3.2c-9.1,1.8-18-4.1-19.9-13.2c-0.2-1.1-0.3-2.2-0.3-3.3V54.2c0-4.3,1.7-8.5,4.6-11.6l11.3-11.9
		C-1468,26.7-1462.7,24.8-1457.4,25.5z M-1459.1,39.6c-0.9-0.1-1.7,0.2-2.3,0.9l-11.4,11.9c-0.5,0.5-0.7,1.2-0.7,1.8V69
		c0,1.5,1.2,2.7,2.7,2.7c0.2,0,0.4,0,0.5-0.1l16.1-3.2c0.5-0.1,1-0.4,1.4-0.7l20.5-20.5c1-1,1-2.7,0-3.8c-0.4-0.4-1-0.7-1.5-0.8
		L-1459.1,39.6z"/>
	<path id="Path_120_1_" class="st1" d="M-803.3,133.1c0,0,6.1,24.5-6.1,36.8c-12.3,12.2-36.8,12.3-36.8,0
		C-846.2,157.6-858.5,145.3-803.3,133.1z"/>
	<circle id="Ellipse_72_1_" class="st8" cx="-1274.3" cy="84.5" r="19.6"/>
</g>
<g>
	<g>
		<g>
			<path class="st1" d="M-1371.7-138.2c-2.9,34.5-38.8,39.9-38.8,39.9c30.8,1.5,38.5,41.9,38.5,41.9c0.7-28.8,39.7-42.3,39.7-42.3
				C-1361.5-100.5-1371.7-138.2-1371.7-138.2z"/>
		</g>
	</g>
	<g>
		<g>
			<path class="st7" d="M-1332-103.2c-25.6-1.5-35.3-35.8-35.3-36.2c-0.6-2.1-2.5-3.5-4.7-3.3c-2.2,0.2-3.9,1.9-4,4.1
				c-2.6,30.4-33.7,35.6-35,35.9c-2.3,0.3-3.9,2.4-3.8,4.7c0.1,2.3,2,4.1,4.3,4.2c26.9,1.3,34.3,37.9,34.3,38.3
				c0.4,2.1,2.3,3.6,4.4,3.6c0.1,0,0.3,0,0.4,0c2.3-0.2,4-2.1,4.1-4.3c0.6-25.4,36.3-38.1,36.7-38.2c2-0.7,3.3-2.7,3-4.8
				C-1328.1-101.5-1329.9-103.1-1332-103.2z M-1372.4-72.4c-4-9.3-11.1-20.6-22.6-26.4c8.7-4.2,19.1-11.7,24.4-24.6
				c4.6,9.2,12.5,20.5,24.8,26C-1354.7-92.6-1366.4-84.4-1372.4-72.4z"/>
		</g>
	</g>
	<g>
		<g>
			<path class="st1" d="M-1436.3-87.6c-2.1,24.4-27.4,28.2-27.4,28.2c21.8,1,27.2,29.6,27.2,29.6c0.5-20.4,28.1-29.9,28.1-29.9
				C-1429.1-60.9-1436.3-87.6-1436.3-87.6z"/>
		</g>
	</g>
	<g>
		<g>
			<path class="st7" d="M-1408.2-64.2c-17.2-1-23.8-24.4-23.8-24.6c-0.6-2.1-2.5-3.5-4.7-3.3c-2.2,0.2-3.9,1.9-4.1,4.1
				c-1.7,20.5-22.8,24-23.7,24.2c-2.3,0.3-3.9,2.4-3.8,4.7c0.1,2.3,2,4.1,4.3,4.2c18,0.8,23,25.8,23.1,26c0.4,2.1,2.3,3.6,4.4,3.6
				c0.1,0,0.2,0,0.4,0c2.3-0.2,4-2.1,4.1-4.4c0.4-17,24.8-25.7,25.1-25.8c2-0.7,3.3-2.7,3-4.8C-1404.3-62.4-1406.1-64-1408.2-64.2z
				 M-1436.7-43.9c-2.8-5.6-7-11.8-13.3-15.7c5.5-3.1,11-7.8,14.5-14.7c3.1,5.6,7.9,11.8,14.7,15.6
				C-1426.3-55.4-1432.6-50.6-1436.7-43.9z"/>
		</g>
	</g>
	<g>
		<g>
			<path class="st1" d="M-1436.3-167c-2.1,24.4-27.4,28.2-27.4,28.2c21.8,1,27.2,29.6,27.2,29.6c0.5-20.4,28.1-29.9,28.1-29.9
				C-1429.1-140.4-1436.3-167-1436.3-167z"/>
		</g>
	</g>
	<g>
		<g>
			<path class="st7" d="M-1408.2-143.6c-17.2-1-23.8-24.4-23.8-24.6c-0.6-2.1-2.5-3.5-4.7-3.3c-2.2,0.2-3.9,1.9-4.1,4.1
				c-1.7,20.5-22.8,24-23.7,24.2c-2.3,0.3-3.9,2.4-3.8,4.7c0.1,2.3,2,4.1,4.3,4.2c18,0.8,23,25.8,23.1,26c0.4,2.1,2.3,3.6,4.4,3.6
				c0.1,0,0.2,0,0.4,0c2.3-0.2,4-2.1,4.1-4.4c0.4-17,24.8-25.7,25.1-25.8c2-0.7,3.3-2.7,3-4.8
				C-1404.3-141.8-1406.1-143.5-1408.2-143.6z M-1436.7-123.3c-2.8-5.6-7-11.8-13.3-15.7c5.5-3.1,11-7.8,14.5-14.6
				c3.1,5.6,7.9,11.8,14.7,15.6C-1426.3-134.9-1432.6-130-1436.7-123.3z"/>
		</g>
	</g>
</g>
</svg>
