<svg xmlns="http://www.w3.org/2000/svg" width="100.5" height="100" viewBox="0 0 100.5 100">
  <g id="Page-1" transform="translate(0 12)">
    <g id="Artboard-Copy" transform="translate(0.5 -12)">
      <g id="Group-6504">
        <g id="Group_207" transform="translate(0 19.073)">
          <rect id="Rectangle_145" width="23.008" height="5.787" rx="1.736" stroke-width="1" fill="#d8e1e6" stroke="rgba(0,0,0,0)" transform="translate(0 52.993)"/>
          <path id="Path-3" d="M3.018,17.827l3.014-3.15,6.423.712,3.088,3.379L15.077,43.8l-2.622,3.6H6.664L3.018,43.8Z" transform="translate(2.012 9.196)" fill="#e83c33" fill-rule="evenodd"/>
          <path id="Rectangle_146" d="M7.981,14.29h3.052a5.518,5.518,0,0,1,5.518,5.518V42.733a5.518,5.518,0,0,1-5.518,5.518H7.981a5.518,5.518,0,0,1-5.518-5.518V19.808A5.518,5.518,0,0,1,7.981,14.29Zm0,1.667A3.852,3.852,0,0,0,4.13,19.808V42.733a3.852,3.852,0,0,0,3.852,3.852h3.052a3.852,3.852,0,0,0,3.852-3.852V19.808a3.852,3.852,0,0,0-3.852-3.852Z" transform="translate(1.642 8.938)" fill="#242a3c"/>
          <circle id="Oval" cx="4.167" cy="4.167" r="4.167" transform="translate(3.333 30.927)" fill="#d5dfe8"/>
          <circle id="Oval-Copy-2" cx="4.167" cy="4.167" r="4.167" transform="translate(14.167 30.927)" fill="#d5dfe8"/>
          <path id="Rectangle_147" d="M6.278,18.762a4.56,4.56,0,1,1-4.56,4.56A4.56,4.56,0,0,1,6.278,18.762Zm0,1.667a2.893,2.893,0,1,0,2.893,2.893A2.893,2.893,0,0,0,6.278,20.429Z" transform="translate(1.145 11.92)" fill="#242a3c"/>
          <path id="Rectangle_148" d="M11.618,18.762A3.938,3.938,0,0,1,15.557,22.7v1.243a3.938,3.938,0,0,1-7.877,0V22.7A3.938,3.938,0,0,1,11.618,18.762Zm0,1.667A2.272,2.272,0,0,0,9.347,22.7v1.243a2.272,2.272,0,0,0,4.543,0V22.7A2.272,2.272,0,0,0,11.618,20.429Z" transform="translate(5.12 11.92)" fill="#242a3c"/>
          <path id="Rectangle" d="M3.306,27.57H8.63v3.241H3.306Z" transform="translate(2.204 17.792)" fill="#d5dfe8" fill-rule="evenodd"/>
          <path id="Rectangle_149" d="M5.16,26.96H7.643a2.7,2.7,0,0,1,0,5.393H5.16a2.7,2.7,0,0,1,0-5.393Zm0,1.667a1.03,1.03,0,1,0,0,2.06H7.643a1.03,1.03,0,1,0,0-2.06Z" transform="translate(1.642 17.385)" fill="#242a3c"/>
          <path id="Line_27" d="M20.517,5.514l4.109,2.849a.833.833,0,1,0,.95-1.37L21.467,4.145a.833.833,0,1,0-.95,1.37Zm8.217,5.7,4.109,2.849a.833.833,0,0,0,.95-1.37L29.685,9.843a.833.833,0,1,0-.95,1.37Zm8.217,5.7,4.109,2.849a.833.833,0,1,0,.95-1.37L37.9,15.542a.833.833,0,0,0-.95,1.37Zm8.217,5.7,4.109,2.849a.833.833,0,1,0,.95-1.37L46.12,21.24a.833.833,0,0,0-.95,1.37Z" transform="translate(13.439 2.076)" fill="#4676e8"/>
          <path id="Line_28" d="M17.32,5.741l.672,4.955a.833.833,0,1,0,1.652-.224l-.672-4.955a.833.833,0,0,0-1.652.224Zm1.345,9.909.672,4.955a.833.833,0,1,0,1.652-.224l-.672-4.955a.833.833,0,0,0-1.652.224Zm1.345,9.909.663,4.883a.833.833,0,0,0,1.652-.224l-.663-4.883a.833.833,0,1,0-1.652.224Z" transform="translate(11.541 2.609)" fill="#4676e8"/>
          <path id="Line_29" d="M18.707,6.9l2.812,4.134A.833.833,0,0,0,22.9,10.1L20.085,5.966a.833.833,0,1,0-1.378.937Zm5.624,8.269,2.812,4.134a.833.833,0,0,0,1.378-.937l-2.812-4.134a.833.833,0,0,0-1.378.937Zm5.624,8.269,2.772,4.076a.833.833,0,1,0,1.378-.937L31.333,22.5a.833.833,0,1,0-1.378.937Z" transform="translate(12.375 3.146)" fill="#4676e8"/>
          <path id="Line_30" d="M20.154,6.37l2.365,2.349a.833.833,0,0,0,1.174-1.183L21.329,5.187A.833.833,0,0,0,20.154,6.37Zm4.73,4.7,2.365,2.349a.833.833,0,1,0,1.174-1.183L26.059,9.885a.833.833,0,1,0-1.174,1.183Zm4.73,4.7,2.365,2.349a.833.833,0,1,0,1.174-1.183l-2.365-2.349a.833.833,0,1,0-1.174,1.183Zm4.73,4.7,2.365,2.349a.833.833,0,1,0,1.174-1.183L35.52,19.28a.833.833,0,1,0-1.174,1.183Z" transform="translate(13.272 2.708)" fill="#4676e8"/>
          <path id="Path_110" d="M52.773,24.105H16.751l1.242-11.178,34.78,1.242Z" transform="translate(11.167 8.03)" fill="#fff" stroke="rgba(0,0,0,0)" stroke-width="1"/>
          <path id="Path_111" d="M20.145,2.216l-1.653-.275a5.772,5.772,0,0,0-6.517,7.21h0a1.56,1.56,0,0,1-.51,1.612l-4.21,3.483a1.563,1.563,0,0,0-.565,1.2v8.483" transform="translate(4.46 0.654)" fill="none" stroke="#242a3c" stroke-width="1" fill-rule="evenodd"/>
          <path id="Path-2" d="M14.763,4.1,16.437,1.4l8.152,3.23L22.658,8.139Z" transform="translate(9.842 0.347)" fill="#d5dfe8" fill-rule="evenodd"/>
          <path id="Rectangle_150" d="M3.092,0h5.42a3.092,3.092,0,1,1,0,6.183H3.092A3.092,3.092,0,0,1,3.092,0Zm0,1.667a1.425,1.425,0,0,0,0,2.85h5.42a1.425,1.425,0,0,0,0-2.85Z" transform="translate(25.23 0) rotate(21.204)" fill="#242a3c"/>
          <g id="Group_197" transform="translate(14.06 23.04)">
            <rect id="Rectangle_151" width="23.008" height="5.787" rx="1.736" stroke-width="1" fill="#d8e1e6" stroke="rgba(0,0,0,0)" transform="translate(10.782 29.953)"/>
            <rect id="Rectangle_152" width="63.993" height="5.752" rx="1.725" stroke-width="1" fill="#d8e1e6" stroke="rgba(0,0,0,0)" transform="translate(12.22 27.797)"/>
            <path id="Path_112" d="M9.677,4.384l-6.122,6.53a5.182,5.182,0,0,0-1.4,3.542v.637a5.167,5.167,0,0,1-.312,1.768l-1.53,4.21a5.18,5.18,0,0,0,.935,5.14l.813.948a5.178,5.178,0,0,0,3.885,1.808l72.567.647a5.179,5.179,0,0,0,5.212-5.547l-.247-3.443a5.167,5.167,0,0,0-.533-1.947h0a5.18,5.18,0,0,0-3.062-2.62L66.57,11.822a5.177,5.177,0,0,1-.813-.333L51.847,4.272A24.758,24.758,0,0,0,40.978,1.5L17.71,1A10.7,10.7,0,0,0,9.677,4.384Z" transform="translate(0 -0.429)" fill="#fff" stroke="#242a3c" stroke-width="1"/>
            <g id="Group_196" transform="translate(3.029 15.498)">
              <path id="Path_113" d="M2.963,10.76A3.5,3.5,0,0,1,.06,7.927a3.167,3.167,0,0,1,.068-1.5C.755,4.374,4.51-2.47,13.9.952s10.013,10.267,5,10.95C14.991,12.427,6.488,11.285,2.963,10.76Z" transform="translate(0 -0.01)" fill="#d5dfe8" stroke="rgba(0,0,0,0)" stroke-width="1"/>
            </g>
            <path id="Path_115" d="M43.18,8.366a1.645,1.645,0,0,0-1,.023h0a1.317,1.317,0,0,0,.182,2.012l5.807,4.03a3.88,3.88,0,0,0,3.045.515,4.2,4.2,0,0,1,1.547.14h0a1.64,1.64,0,0,0,1.523-2.248l-.243-.608a1.643,1.643,0,0,0-1.057-.963Z" transform="translate(27.864 4.439)" fill="#f7a14b"/>
            <path id="Path_116" d="M8.978,1.156h-4.4c-.5,0-.762.512-.432.833l2.178,2.15a.637.637,0,0,0,.86,0L9.4,1.993C9.743,1.671,9.478,1.156,8.978,1.156Z" transform="translate(2.664 -0.323)" fill="#e83c33"/>
            <path id="Path_115-2" data-name="Path_115" d="M42.241,7.935,42.059,8l-.136.136a2.15,2.15,0,0,0,.3,3.285l5.807,4.03a4.726,4.726,0,0,0,3.72.639,3.517,3.517,0,0,1,1.12.133l.227.032a2.473,2.473,0,0,0,2.3-3.391l-.243-.609A2.477,2.477,0,0,0,53.554,10.8l-9.8-2.9A2.48,2.48,0,0,0,42.241,7.935Zm9.225,6.515a3.161,3.161,0,0,1-2.511-.384L43.17,10.049A.483.483,0,0,1,43,9.467a.812.812,0,0,1,.28.031l9.8,2.9a.809.809,0,0,1,.52.474l.243.608a.807.807,0,0,1-.659,1.1A5.028,5.028,0,0,0,51.467,14.449Z" transform="translate(27.53 4.106)" fill="#242a3c"/>
            <path id="Path_116-2" data-name="Path_116" d="M9.314.656h-4.4A1.326,1.326,0,0,0,3.9,2.919L6.072,5.066a1.477,1.477,0,0,0,2.008.021l2.238-2.162A1.324,1.324,0,0,0,9.314.656ZM7.089,3.728,5.666,2.323H8.544Z" transform="translate(2.327 -0.656)" fill="#242a3c"/>
            <path id="Path_117" d="M24.175,2.926l-8.833.442a10.667,10.667,0,0,0-7,3.108h0a1.38,1.38,0,0,0,.875,2.352l14.93,1.105a1.38,1.38,0,0,0,1.47-1.375V4.3a1.38,1.38,0,0,0-1.442-1.377Z" transform="translate(5.292 0.856)" fill="#242a3c"/>
            <circle id="Oval-2" data-name="Oval" cx="5" cy="5" r="5" transform="translate(61.773 21.22)" fill="#fff"/>
            <circle id="Oval-Copy" cx="5" cy="5" r="5" transform="translate(8.44 21.22)" fill="#fff"/>
            <path id="Rectangle_153" d="M11.542,11.236A9.445,9.445,0,1,1,2.1,20.681,9.445,9.445,0,0,1,11.542,11.236Zm0,6.667a2.778,2.778,0,1,0,2.778,2.778A2.778,2.778,0,0,0,11.542,17.9Z" transform="translate(1.398 6.397)" fill="#242a3c"/>
            <path id="Rectangle_154" d="M9.445,0A9.445,9.445,0,1,1,0,9.445,9.445,9.445,0,0,1,9.445,0Zm0,6.667a2.778,2.778,0,1,0,2.778,2.778A2.778,2.778,0,0,0,9.445,6.667Z" transform="translate(57.77 16.675) rotate(6.154)" fill="#242a3c"/>
            <path id="Path_118" d="M43.664,10.535,35.811,5.887A19.19,19.19,0,0,0,27.324,3.26l-4.977-.333a1.073,1.073,0,0,0-1.14,1.167l.525,5.76a1.073,1.073,0,0,0,.98.973L43.029,12.52a1.073,1.073,0,0,0,.635-1.985Z" transform="translate(14.136 0.856)" fill="#242a3c"/>
            <path id="Path_117-2" data-name="Path_117" d="M15.633,2.868A11.5,11.5,0,0,0,8.086,6.219a2.213,2.213,0,0,0,1.4,3.772l14.93,1.1a2.213,2.213,0,0,0,2.365-2.2V4.636a2.213,2.213,0,0,0-2.312-2.209Zm9.314,1.374a.547.547,0,0,1,.169.395V8.891a.547.547,0,0,1-.582.543L9.611,8.329A.547.547,0,0,1,9.264,7.4a9.833,9.833,0,0,1,6.453-2.865l8.83-.442A.547.547,0,0,1,24.947,4.242Z" transform="translate(4.958 0.523)" fill="#242a3c"/>
            <path id="Path_118-2" data-name="Path_118" d="M44.422,10.151,36.569,5.5a20.024,20.024,0,0,0-8.856-2.741l-4.976-.333A1.907,1.907,0,0,0,20.711,4.5l.525,5.761a1.906,1.906,0,0,0,1.741,1.728l20.317,1.693a1.907,1.907,0,0,0,1.141-3.525Zm-.758,1.7a.24.24,0,0,1-.245.166l-20.3-1.692a.24.24,0,0,1-.219-.218l-.525-5.761a.24.24,0,0,1,.255-.26l4.976.333A18.357,18.357,0,0,1,35.72,6.938l7.844,4.643A.24.24,0,0,1,43.664,11.856Z" transform="translate(13.802 0.523)" fill="#242a3c"/>
            <path id="Path_119" d="M3.7,6.81l2.957.363a1.147,1.147,0,0,1,.667,1.948L4.915,11.528a1.15,1.15,0,0,1-.587.315l-1.883.377a1.147,1.147,0,0,1-1.372-1.125V9.355a1.152,1.152,0,0,1,.315-.788L2.721,7.161A1.147,1.147,0,0,1,3.7,6.81Z" transform="translate(0.715 3.44)" fill="#e83c33"/>
            <path id="Path_119-2" data-name="Path_119" d="M4.134,6.316l2.958.364a1.98,1.98,0,0,1,1.151,3.364L5.838,12.45a1.984,1.984,0,0,1-1.013.544l-1.883.377A1.98,1.98,0,0,1,.573,11.428V9.686a1.986,1.986,0,0,1,.544-1.36l1.331-1.4A1.98,1.98,0,0,1,4.134,6.316ZM3.93,7.97a.316.316,0,0,0-.271.1l-1.332,1.4a.317.317,0,0,0-.087.216v1.74a.313.313,0,0,0,.375.307L4.5,11.359a.317.317,0,0,0,.162-.087L7.065,8.865a.313.313,0,0,0-.179-.532Z" transform="translate(0.382 3.107)" fill="#242a3c"/>
            <path id="Path_120" d="M50.816,13.883s.72,2.877-.72,4.313-4.313,1.438-4.313,0S44.344,15.321,50.816,13.883Z" transform="translate(30.431 8.162)" fill="#d5dfe8" stroke="rgba(0,0,0,0)" stroke-width="1"/>
          </g>
          <path id="Path_121" d="M50.589,19.834l-1.272-2.362-1.223,2.212a3.568,3.568,0,0,1-1.43,1.417l-2.223,1.2,2.1,1.167a4,4,0,0,1,1.585,1.6l1.143,2.113,1.3-2.348a3.05,3.05,0,0,1,1.22-1.207l2.358-1.275-2.333-1.295A3.087,3.087,0,0,1,50.589,19.834Z" transform="translate(29.627 11.06)" fill="#d8e1e6"/>
          <path id="Path_122" d="M57.449,12.1l-1.92-3.55-1.845,3.333a5.4,5.4,0,0,1-2.167,2.138l-3.35,1.822L51.334,17.6a6.053,6.053,0,0,1,2.4,2.412l1.725,3.19,1.952-3.54a4.6,4.6,0,0,1,1.833-1.823l3.56-1.927L59.27,13.955A4.648,4.648,0,0,1,57.449,12.1Z" transform="translate(32.111 5.11)" fill="#d8e1e6"/>
          <path id="Path_123" d="M48.272,8.042,47.33,6.3l-.912,1.648A2.667,2.667,0,0,1,45.354,9l-1.657.9,1.568.867a2.982,2.982,0,0,1,1.182,1.192l.852,1.575.967-1.748a2.282,2.282,0,0,1,.91-.9l1.758-.952-1.748-.965A2.3,2.3,0,0,1,48.272,8.042Z" transform="translate(29.131 3.608)" fill="#d8e1e6"/>
          <path id="Path_121-2" data-name="Path_121" d="M50.021,16.428l-1.962,3.548a2.736,2.736,0,0,1-1.1,1.087l-2.225,1.206-1.336.724,3.432,1.9a3.168,3.168,0,0,1,1.256,1.269l1.144,2.114.725,1.34,2.036-3.682a2.216,2.216,0,0,1,.886-.876l2.359-1.275,1.338-.723-3.663-2.033a2.257,2.257,0,0,1-.9-.9Zm2.067,7.166a3.883,3.883,0,0,0-1.553,1.536l-.561,1.015-.418-.773a4.832,4.832,0,0,0-1.915-1.934l-.773-.429.887-.481a4.4,4.4,0,0,0,1.763-1.747L50,19.907l.548,1.017a3.924,3.924,0,0,0,1.56,1.564l1,.555Z" transform="translate(28.934 10.364)" fill="#242a3c"/>
          <path id="Path_122-2" data-name="Path_122" d="M58.874,12.4,56.23,7.506l-2.583,4.666a4.569,4.569,0,0,1-1.832,1.808L48.462,15.8l-1.334.725,4.494,2.491A5.222,5.222,0,0,1,53.694,21.1l1.724,3.188.726,1.342,2.689-4.877a3.762,3.762,0,0,1,1.5-1.493l3.559-1.926,1.34-.725-4.867-2.69a3.811,3.811,0,0,1-1.49-1.521Zm.665,5.4a5.429,5.429,0,0,0-2.167,2.155l-1.214,2.2-1-1.848a6.888,6.888,0,0,0-2.731-2.745l-1.837-1.018,2.016-1.1a6.233,6.233,0,0,0,2.5-2.466l1.108-2,1.2,2.21v0a5.482,5.482,0,0,0,2.148,2.19l2.2,1.219Z" transform="translate(31.419 4.416)" fill="#242a3c"/>
          <path id="Path_123-2" data-name="Path_123" d="M48.035,5.252l-1.65,2.984a1.833,1.833,0,0,1-.732.725L44,9.856l-1.342.725,2.9,1.6a2.149,2.149,0,0,1,.852.859l.852,1.575.725,1.341,1.7-3.082a1.447,1.447,0,0,1,.577-.57l1.759-.952,1.341-.726-3.083-1.7a1.463,1.463,0,0,1-.583-.587Zm1.439,5.589a3.115,3.115,0,0,0-1.242,1.229l-.23.416-.127-.234a3.815,3.815,0,0,0-1.512-1.525L46.13,10.6l.315-.17a3.5,3.5,0,0,0,1.4-1.385l.173-.313.217.4a3.129,3.129,0,0,0,1.245,1.255l.412.228Z" transform="translate(28.436 2.913)" fill="#242a3c"/>
          <circle id="Ellipse_70" cx="1.863" cy="1.863" r="1.863" transform="translate(37.855 18.473)" fill="#fff" stroke="rgba(0,0,0,0)" stroke-width="1"/>
          <circle id="Ellipse_72" cx="2.295" cy="2.295" r="2.295" transform="translate(37.763 37.097)" fill="#fff" stroke="rgba(0,0,0,0)" stroke-width="1"/>
        </g>
        <path id="Path_333" d="M.5,0h100V100H.5Z" transform="translate(-0.5)" fill="#fff" opacity="0"/>
      </g>
    </g>
  </g>
</svg>
