<svg xmlns="http://www.w3.org/2000/svg" width="100" height="100" viewBox="0 0 100 100">
  <g id="Group_7402" data-name="Group 7402" transform="translate(20988 -5678)">
    <g id="Group_433" transform="translate(-20988 5678)" opacity="0">
      <g id="Group_428">
        <path id="Path_332" d="M0,0H100V100H0Z" fill="#fff"/>
      </g>
    </g>
    <g id="Group_7398" data-name="Group 7398" transform="translate(-1.093 -2.09)">
      <g id="Group_435" transform="translate(-20962.906 5703.09)">
        <rect id="Rectangle_185" width="11.348" height="7.413" rx="2.013" transform="translate(4.226 47.018)" fill="#d8e1e6"/>
        <path id="Path_166" d="M48.235,9.916a.689.689,0,0,0-.677.175L44.2,13.454a3.064,3.064,0,0,1-4.334,0l-1.88-1.88a3.066,3.066,0,0,1,0-4.334l3.362-3.362a.689.689,0,0,0-.331-1.158,9.963,9.963,0,0,0-9.317,2.9A10.081,10.081,0,0,0,29.67,16.1a.687.687,0,0,1-.147.737L10.534,35.819A6.791,6.791,0,1,0,15.619,40.9L34.584,21.938a.685.685,0,0,1,.737-.147,9.98,9.98,0,0,0,13.4-11.368A.689.689,0,0,0,48.235,9.916Z" transform="translate(0.94 1.186)" fill="#d8e1e6"/>
        <path id="Path_166-2" data-name="Path_166" d="M10.65,35.242a7.711,7.711,0,1,0,6.388,6.386L35.544,23.121A10.9,10.9,0,0,0,50.037,10.651a1.609,1.609,0,0,0-2.71-.791l-3.362,3.362a2.143,2.143,0,0,1-3.032,0l-1.88-1.88a2.145,2.145,0,0,1,0-3.033l3.362-3.362a1.609,1.609,0,0,0-.775-2.706A10.89,10.89,0,0,0,31.447,5.408a11,11,0,0,0-2.266,11.3ZM48.319,11.473a9.06,9.06,0,0,1-12.242,9.88,1.6,1.6,0,0,0-1.718.349l-18.97,18.97-.361.361.115.5a5.87,5.87,0,1,1-4.4-4.395l.5.115L30.594,17.9a1.61,1.61,0,0,0,.351-1.73,9.156,9.156,0,0,1,1.845-9.506A9.039,9.039,0,0,1,40.8,3.957L37.751,7.008a3.986,3.986,0,0,0,0,5.636l1.88,1.88a3.985,3.985,0,0,0,5.637,0Z" transform="translate(0.519 0.766)" fill="#242a3c"/>
        <path id="Path_167" d="M8.949,32.569,32.185,9.341c.654-.654,1.265.521,1.994,1.09a3.6,3.6,0,0,0,2.062,1.031,17.38,17.38,0,0,0,5.156-3.1c1.289-1.05,1.217-.626,1.031,1.031A8.816,8.816,0,0,1,38.3,15.587c-3.417,2.141-5.266.256-6.767-.166a1.863,1.863,0,0,0-1.8.435l-18.258,18.3c-.834.792-2.13,1.705-2.762.748h0a1.852,1.852,0,0,1,.228-2.335Z" transform="translate(6.152 5.64)" fill="#fff"/>
        <rect id="Rectangle_186" width="23.727" height="7.413" rx="2.013" transform="translate(28.984 47.018)" fill="#d8e1e6"/>
        <rect id="Rectangle_187" width="2.918" height="40.232" rx="0.792" transform="translate(3.928 6.488) rotate(-45)" fill="#242a3c"/>
        <path id="Rectangle_187-2" data-name="Rectangle_187" d="M2.379,0A2.379,2.379,0,0,1,4.76,2.379V39.694a2.38,2.38,0,0,1-4.76,0V2.379A2.379,2.379,0,0,1,2.379,0ZM1.841,2.379V39.694a.539.539,0,0,0,1.077,0V2.379a.539.539,0,0,0-1.077,0Z" transform="translate(2.626 6.488) rotate(-45)" fill="#242a3c"/>
        <circle id="Ellipse_77" cx="2.911" cy="2.911" r="2.911" transform="translate(7.077 40.9)" fill="#fff" stroke="#242a3c" stroke-width="1"/>
        <rect id="Rectangle_188" width="11.348" height="33.397" rx="2.743" transform="translate(19.668 28.705) rotate(-45)" fill="#e83c33"/>
        <path id="Rectangle_188-2" data-name="Rectangle_188" d="M5.971,0H7.218a5.971,5.971,0,0,1,5.971,5.971v23.3a5.971,5.971,0,0,1-5.971,5.971H5.971A5.971,5.971,0,0,1,0,29.267V5.971A5.971,5.971,0,0,1,5.971,0Zm0,1.841a4.13,4.13,0,0,0-4.13,4.13v23.3a4.13,4.13,0,0,0,4.13,4.13H7.218a4.13,4.13,0,0,0,4.13-4.13V5.971a4.13,4.13,0,0,0-4.13-4.13Z" transform="translate(18.366 28.705) rotate(-45)" fill="#242a3c"/>
        <rect id="Rectangle_189" width="5.308" height="29.02" rx="1.441" transform="translate(23.278 28.187) rotate(-45)" fill="#ce2d29"/>
        <path id="Path_168" d="M1.41,1.508l.1-.1a1.4,1.4,0,0,1,1.657-.243L7.087,3.281A1.4,1.4,0,0,1,7.3,5.606L5.144,7.328a1.4,1.4,0,0,1-2.127-.466L1.149,3.124A1.4,1.4,0,0,1,1.41,1.508Z" transform="translate(-0.08 -0.078)" fill="#242a3c"/>
        <path id="Path_168-2" data-name="Path_168" d="M1.179,1.278l.1-.1a2.32,2.32,0,0,1,2.746-.4L7.945,2.892a2.322,2.322,0,0,1,.347,3.854L6.139,8.468a2.322,2.322,0,0,1-3.525-.773L.746,3.957A2.322,2.322,0,0,1,1.179,1.278ZM2.393,3.133,4.261,6.87a.481.481,0,0,0,.729.16L7.141,5.309a.481.481,0,0,0-.071-.8L3.147,2.4a.479.479,0,0,0-.568.084l-.1.1A.48.48,0,0,0,2.393,3.133Z" transform="translate(-0.501 -0.498)" fill="#242a3c"/>
      </g>
    </g>
  </g>
</svg>
