<svg xmlns="http://www.w3.org/2000/svg" width="100" height="100" viewBox="0 0 100 100">

  <g id="Group_7408" data-name="Group 7408" transform="translate(20839.999 -5678)">
    <path id="Path_332" d="M0,0H100V100H0Z" transform="translate(-20840 5678)" fill="#fff" opacity="0"/>
    <g id="Group_7400" data-name="Group 7400" transform="translate(1.33 -0.755)">
      <circle id="Ellipse_73" cx="1.803" cy="1.803" r="1.803" transform="translate(-20769.369 5719.608)" fill="#d8e1e6"/>
      <circle id="Ellipse_74" cx="1.803" cy="1.803" r="1.803" transform="translate(-20816.254 5723.216)" fill="#d8e1e6"/>
      <rect id="Rectangle_161" width="7.943" height="15.887" rx="2.446" transform="matrix(0.994, -0.105, 0.105, 0.994, -20779.129, 5733.161)" fill="#242a3c"/>
      <rect id="Rectangle_159" width="48.358" height="4.347" rx="1.339" transform="translate(-20819.668 5747.567) rotate(0.976)" fill="#d8e1e6"/>
      <path id="Rectangle_161-2" data-name="Rectangle_161" d="M4.781,0A4.782,4.782,0,0,1,9.567,4.781v7.948a4.784,4.784,0,0,1-9.567,0V4.781A4.781,4.781,0,0,1,4.781,0ZM1.624,4.781v7.948a3.16,3.16,0,0,0,6.32,0V4.781a3.16,3.16,0,0,0-6.32,0Z" transform="matrix(0.994, -0.105, 0.105, 0.994, -20780.021, 5732.438)" fill="#242a3c"/>
      <rect id="Rectangle_160" width="7.943" height="15.887" rx="2.446" transform="matrix(0.994, -0.105, 0.105, 0.994, -20822.842, 5737.774)" fill="#242a3c"/>
      <path id="Rectangle_160-2" data-name="Rectangle_160" d="M4.781,0A4.782,4.782,0,0,1,9.567,4.781v7.948a4.784,4.784,0,0,1-9.567,0V4.781A4.781,4.781,0,0,1,4.781,0ZM1.624,4.781v7.948a3.16,3.16,0,0,0,6.32,0V4.781a3.16,3.16,0,0,0-6.32,0Z" transform="matrix(0.994, -0.105, 0.105, 0.994, -20823.736, 5737.052)" fill="#242a3c"/>
      <path id="Path_127" d="M9.493,2.059l-5.154,9.88a3.354,3.354,0,0,0-.213.5L2.681,16.775a3.457,3.457,0,0,1-.132.333L.307,22.042A3.41,3.41,0,0,0,0,23.57L.31,32.421a6.032,6.032,0,0,0,5.906,5.823l20.24.412,20.566-.412a6.032,6.032,0,0,0,5.914-6.029l.026-1.364a4.546,4.546,0,0,0-.8-2.551,5.28,5.28,0,0,1-.445-5.293c.468-.667.888-1.315.732-1.575l-2.471-4.121a3.4,3.4,0,0,1-.343-.775l-1.382-4.6a3.424,3.424,0,0,0-.216-.546L43.4,2.119A3.832,3.832,0,0,0,39.972,0H12.891A3.832,3.832,0,0,0,9.493,2.059Z" transform="matrix(0.994, -0.105, 0.105, 0.994, -20826.523, 5710.206)" fill="#e83c33"/>
      <path id="Path_128" d="M.894.832S4.072-.649,5.13.34a3.608,3.608,0,0,1,.724,2.908L5.286,4.835S1.425,4.771.365,3.786.894.832.894.832Z" transform="matrix(0.994, -0.105, 0.105, 0.994, -20827.436, 5720.418)" fill="#fff"/>
      <path id="Path_129" d="M5.021.832S1.845-.649.786.34A3.61,3.61,0,0,0,.061,3.248l.57,1.586s3.863-.057,4.922-1.042S5.021.832,5.021.832Z" transform="matrix(0.994, -0.105, 0.105, 0.994, -20776.893, 5715.083)" fill="#fff"/>
      <path id="Path_130" d="M.181,6.734,3.31.822A1.546,1.546,0,0,1,4.676,0H31.41a1.546,1.546,0,0,1,1.366.822L35.9,6.732a1.546,1.546,0,0,1-1.366,2.273H1.547A1.546,1.546,0,0,1,.181,6.734Z" transform="matrix(0.994, -0.105, 0.105, 0.994, -20817.941, 5711.431)" fill="#e6ebf0"/>
      <path id="Rectangle_162" d="M3.012,0h41.3a3.012,3.012,0,0,1,3.012,3.012V7.349a5.358,5.358,0,0,1-5.358,5.358H5.358A5.358,5.358,0,0,1,0,7.349V3.012A3.012,3.012,0,0,1,3.012,0Z" transform="matrix(0.994, -0.105, 0.105, 0.994, -20821.307, 5733.085)" fill="#c82d2d"/>
      <path id="Path_127-2" data-name="Path_127" d="M4.431,12.376a4.158,4.158,0,0,0-.263.617L2.723,17.33a2.635,2.635,0,0,1-.1.252L.38,22.518A4.221,4.221,0,0,0,0,24.409l.309,8.852a6.844,6.844,0,0,0,6.7,6.606l20.24.412,20.6-.412a6.844,6.844,0,0,0,6.709-6.84l.026-1.349a5.372,5.372,0,0,0-.943-3.026,4.471,4.471,0,0,1-.38-4.485c.877-1.231,1.1-1.664.7-2.341l-2.471-4.121a2.59,2.59,0,0,1-.261-.59l-1.382-4.6a4.235,4.235,0,0,0-.267-.675L44.938,2.568A4.644,4.644,0,0,0,40.784,0H13.7A4.644,4.644,0,0,0,9.585,2.5ZM52.408,22.5a8.111,8.111,0,0,1-.544.848,6.117,6.117,0,0,0,.445,6.225,3.729,3.729,0,0,1,.654,2.09l-.026,1.344a5.224,5.224,0,0,1-5.118,5.233l-20.567.412L7.044,38.244a5.22,5.22,0,0,1-5.111-5.039l-.309-8.851a2.6,2.6,0,0,1,.233-1.163L4.1,18.256a4.263,4.263,0,0,0,.162-.41l1.446-4.339a2.541,2.541,0,0,1,.161-.377l5.155-9.883A3.02,3.02,0,0,1,13.7,1.624H40.784a3.02,3.02,0,0,1,2.7,1.67l4.638,9.267a2.609,2.609,0,0,1,.164.415l1.382,4.605a4.212,4.212,0,0,0,.424.96l2.414,4.025C52.437,22.45,52.433,22.455,52.408,22.5Z" transform="matrix(0.994, -0.105, 0.105, 0.994, -20827.418, 5709.483)" fill="#242a3c"/>
      <path id="Path_128-2" data-name="Path_128" d="M1.075,1.135,1.193.988l.17-.079A11.806,11.806,0,0,1,2.506.46,9.8,9.8,0,0,1,3.845.1,2.911,2.911,0,0,1,6.578.647a4.451,4.451,0,0,1,.853,3.688L6.667,6.469l-.581-.01c-.174,0-.471-.014-.85-.038-.632-.041-1.265-.107-1.86-.2A5.326,5.326,0,0,1,.624,5.193a2.036,2.036,0,0,1-.581-1.94A4.291,4.291,0,0,1,.551,1.922,5.877,5.877,0,0,1,1.075,1.135Zm.892,1.582a2.762,2.762,0,0,0-.325.822C1.6,3.78,1.63,3.912,1.73,4a4.43,4.43,0,0,0,1.9.611c.539.087,1.122.148,1.706.185l.2.012.329-.9a2.787,2.787,0,0,0-.48-2.166A1.786,1.786,0,0,0,4.142,1.7,8.223,8.223,0,0,0,3.027,2c-.32.108-.6.217-.8.3A4.889,4.889,0,0,0,1.967,2.717Z" transform="matrix(0.994, -0.105, 0.105, 0.994, -20828.33, 5719.695)" fill="#242a3c"/>
      <path id="Path_129-2" data-name="Path_129" d="M6.175.912A11.8,11.8,0,0,0,5.033.463,9.792,9.792,0,0,0,3.694.1,2.929,2.929,0,0,0,1.043.562a4.453,4.453,0,0,0-.97,3.65l.6,1.713.2.546.58-.009c.174,0,.471-.013.85-.037.632-.04,1.264-.1,1.86-.2A5.308,5.308,0,0,0,6.916,5.2a2.039,2.039,0,0,0,.578-1.945,4.316,4.316,0,0,0-.507-1.329,5.905,5.905,0,0,0-.523-.789L6.346.991Zm-.6,1.81a2.787,2.787,0,0,1,.326.823c.044.244.012.377-.087.469a4.414,4.414,0,0,1-1.9.608c-.539.086-1.122.146-1.706.183L2,4.816,1.636,3.789a2.794,2.794,0,0,1,.6-2.128A2.686,2.686,0,0,1,3.4,1.7,8.214,8.214,0,0,1,4.512,2c.32.108.6.217.8.3A4.919,4.919,0,0,1,5.571,2.721Z" transform="matrix(0.994, -0.105, 0.105, 0.994, -20777.785, 5714.359)" fill="#242a3c"/>
      <path id="Path_130-2" data-name="Path_130" d="M.276,7.164h0L3.4,1.253A2.358,2.358,0,0,1,5.487,0H32.222a2.358,2.358,0,0,1,2.083,1.254l3.128,5.908a2.358,2.358,0,0,1-2.082,3.467H2.359A2.358,2.358,0,0,1,.276,7.164Zm1.434.761a.734.734,0,0,0,.648,1.08H35.352A.734.734,0,0,0,36,7.924l-3.129-5.91a.734.734,0,0,0-.648-.39H5.487a.734.734,0,0,0-.648.39Z" transform="matrix(0.994, -0.105, 0.105, 0.994, -20818.834, 5710.709)" fill="#242a3c"/>
      <path id="Path_131" d="M.581,1.714,2.517.228A1.1,1.1,0,0,1,3.79.178l6.652,4.3A1.1,1.1,0,0,1,10.3,6.416L6.708,8.04a1.1,1.1,0,0,1-.812.042L.757,6.376A1.1,1.1,0,0,1,0,5.268L.151,2.532A1.106,1.106,0,0,1,.581,1.714Z" transform="matrix(0.994, -0.105, 0.105, 0.994, -20822.766, 5725.499)" fill="#fff"/>
      <path id="Path_132" d="M9.789,1.512,8.222.309A1.5,1.5,0,0,0,6.494.241L.686,3.995a1.5,1.5,0,0,0,.195,2.63L3.666,7.892a1.51,1.51,0,0,0,1.1.057L9.472,6.38A1.505,1.505,0,0,0,10.5,4.87l-.122-2.246A1.5,1.5,0,0,0,9.789,1.512Z" transform="matrix(0.994, -0.105, 0.105, 0.994, -20785.371, 5721.644)" fill="#fff"/>
      <path id="Path_133" d="M3.276.682.309,4.836A1.624,1.624,0,0,0,1.636,7.412h1.7A3.238,3.238,0,0,0,5.791,6.276L6.72,5.2a3.655,3.655,0,0,0,.739-3.384h0A2.5,2.5,0,0,0,5.051,0H4.6A1.624,1.624,0,0,0,3.276.682Z" transform="matrix(0.994, -0.105, 0.105, 0.994, -20780.943, 5733.884)" fill="#242a3c"/>
      <path id="Path_134" d="M1.916.635,3.181.175a2.9,2.9,0,0,1,1-.175H25.431a2.923,2.923,0,0,1,.921.149l.276.089A2.913,2.913,0,0,1,27.94,4.871L26.248,6.9a2.913,2.913,0,0,1-2.236,1.047H4.422a2.923,2.923,0,0,1-2.15-.958L.757,5.329A2.911,2.911,0,0,1,1.916.635Z" transform="matrix(0.994, -0.105, 0.105, 0.994, -20811.617, 5735.258)" fill="#242a3c"/>
      <path id="Path_135" d="M4.323.682,7.292,4.836A1.624,1.624,0,0,1,5.965,7.412h-1.7A3.238,3.238,0,0,1,1.808,6.276L.88,5.2A3.652,3.652,0,0,1,.141,1.815h0A2.5,2.5,0,0,1,2.547,0H3A1.624,1.624,0,0,1,4.323.682Z" transform="matrix(0.994, -0.105, 0.105, 0.994, -20821.486, 5738.164)" fill="#242a3c"/>
      <path id="Path_131-2" data-name="Path_131" d="M.9,1.882,2.834.4A1.916,1.916,0,0,1,5.043.308l6.651,4.3a1.916,1.916,0,0,1-.248,3.356L7.858,9.59a1.91,1.91,0,0,1-1.406.075L1.313,7.958A1.916,1.916,0,0,1,0,6.036L.152,3.3A1.918,1.918,0,0,1,.9,1.882ZM1.887,3.17a.294.294,0,0,0-.114.219L1.624,6.124a.292.292,0,0,0,.2.293L6.968,8.125a.292.292,0,0,0,.217-.013l3.591-1.624a.292.292,0,0,0,.037-.513L4.16,1.671a.292.292,0,0,0-.337.013Z" transform="matrix(0.994, -0.105, 0.105, 0.994, -20823.656, 5724.776)" fill="#242a3c"/>
      <path id="Path_132-2" data-name="Path_132" d="M9.528.477A2.314,2.314,0,0,0,6.865.371L1.057,4.125a2.315,2.315,0,0,0,.3,4.051L4.141,9.442a2.323,2.323,0,0,0,1.69.088l4.709-1.569a2.318,2.318,0,0,0,1.577-2.325L12,3.392a2.311,2.311,0,0,0-.9-1.712Zm.846,3L10.5,5.726a.694.694,0,0,1-.471.7L5.319,7.99a.7.7,0,0,1-.507-.026L2.029,6.7a.692.692,0,0,1-.09-1.21L7.747,1.734a.69.69,0,0,1,.794.031l1.566,1.2A.688.688,0,0,1,10.374,3.478Z" transform="matrix(0.994, -0.105, 0.105, 0.994, -20786.264, 5720.922)" fill="#242a3c"/>
      <path id="Path_133-2" data-name="Path_133" d="M.461,5.176A2.436,2.436,0,0,0,2.454,9.036H4.145A4.05,4.05,0,0,0,7.221,7.615l.927-1.077a4.468,4.468,0,0,0,.9-4.137A3.314,3.314,0,0,0,5.862,0H5.413A2.435,2.435,0,0,0,3.427,1.023ZM5.412,1.624h.451A1.691,1.691,0,0,1,7.49,2.848,2.843,2.843,0,0,1,6.915,5.48L5.988,6.558a2.428,2.428,0,0,1-1.844.854h-1.7a.812.812,0,0,1-.669-1.289l2.97-4.158A.812.812,0,0,1,5.412,1.624Z" transform="matrix(0.994, -0.105, 0.105, 0.994, -20781.836, 5733.162)" fill="#242a3c"/>
      <path id="Path_134-2" data-name="Path_134" d="M2.451.684,3.715.224A3.716,3.716,0,0,1,4.988,0H26.244a3.724,3.724,0,0,1,1.17.189L27.7.28A3.725,3.725,0,0,1,29.376,6.2l-1.692,2.03a3.725,3.725,0,0,1-2.859,1.339H5.23A3.734,3.734,0,0,1,2.484,8.349L.968,6.687a3.723,3.723,0,0,1,1.483-6Zm-.766,3a2.1,2.1,0,0,0,.484,1.915L3.685,7.256a2.109,2.109,0,0,0,1.549.692h19.59a2.1,2.1,0,0,0,1.613-.755l1.693-2.031a2.1,2.1,0,0,0-.939-3.339l-.282-.091a2.11,2.11,0,0,0-.664-.108H4.988a2.094,2.094,0,0,0-.718.127L3.006,2.21A2.1,2.1,0,0,0,1.685,3.679Z" transform="matrix(0.994, -0.105, 0.105, 0.994, -20812.504, 5734.536)" fill="#242a3c"/>
      <path id="Path_135-2" data-name="Path_135" d="M5.8,1.023,8.761,5.171A2.436,2.436,0,0,1,6.777,9.036h-1.7A4.048,4.048,0,0,1,2,7.617l-.93-1.081A4.464,4.464,0,0,1,.172,2.4,3.314,3.314,0,0,1,3.359,0h.448A2.436,2.436,0,0,1,5.8,1.023Zm-1.322.943a.813.813,0,0,0-.666-.342h-.45A1.69,1.69,0,0,0,1.733,2.85a2.839,2.839,0,0,0,.574,2.628l.931,1.082a2.425,2.425,0,0,0,1.841.852h1.7a.812.812,0,0,0,.66-1.293Z" transform="matrix(0.994, -0.105, 0.105, 0.994, -20822.381, 5737.441)" fill="#242a3c"/>
      <path id="Path_136" d="M.136,7.6,7.6.138A.487.487,0,0,1,8.43.482V4.215a.487.487,0,0,1-.269.435L.693,8.384A.487.487,0,0,1,.136,7.6Z" transform="translate(-20769.811 5721.977) rotate(-10.018)" fill="#f7a14b"/>
      <path id="Path_137" d="M.139.828,7.606,8.3a.487.487,0,0,0,.826-.347V4.214a.487.487,0,0,0-.269-.435L.7.049a.487.487,0,0,0-.56.779Z" transform="translate(-20767.492 5735.119) rotate(-10.018)" fill="#f7a14b"/>
      <path id="Path_138" d="M.375,2.6,9.256.027a.523.523,0,0,1,.688.5V4.382a.523.523,0,0,1-.609.516L.454,3.616A.523.523,0,0,1,.375,2.6Z" transform="translate(-20765.445 5728.95) rotate(-10.018)" fill="#f7a14b"/>
      <path id="Path_136-2" data-name="Path_136" d="M.25,7.729l.005-.005L7.727.252A.893.893,0,0,1,9.241.888V4.622a.893.893,0,0,1-.494.8L1.271,9.157A.893.893,0,0,1,.25,7.729ZM.829,8.3a.082.082,0,0,0,.088.129L8.385,4.693a.081.081,0,0,0,.045-.072V.892A.081.081,0,0,0,8.38.818.08.08,0,0,0,8.3.83Z" transform="translate(-20770.281 5721.648) rotate(-10.018)" fill="#242a3c"/>
      <path id="Path_137-2" data-name="Path_137" d="M.258,1.52,7.725,8.987a.893.893,0,0,0,1.519-.633V4.619a.893.893,0,0,0-.494-.8L1.286.091A.893.893,0,0,0,.255,1.517ZM.835.949A.081.081,0,0,1,.928.819L8.388,4.547a.081.081,0,0,1,.045.073V8.353a.081.081,0,0,1-.138.056L.832.946Z" transform="translate(-20767.967 5734.791) rotate(-10.018)" fill="#242a3c"/>
      <path id="Path_138-2" data-name="Path_138" d="M.665,2.613,9.533.048a.929.929,0,0,1,1.223.882V4.788a.928.928,0,0,1-1.073.918L.807,4.424A.929.929,0,0,1,.665,2.613Zm.228.779a.116.116,0,0,0-.081.121.118.118,0,0,0,.106.107L9.808,4.9a.117.117,0,0,0,.136-.116V.929A.117.117,0,0,0,9.9.834.128.128,0,0,0,9.774.823Z" transform="translate(-20765.916 5728.621) rotate(-10.018)" fill="#242a3c"/>
    </g>
  </g>
</svg>
