<svg xmlns="http://www.w3.org/2000/svg" width="100" height="100" viewBox="0 0 100 100">
  <g id="Group_7403" data-name="Group 7403" transform="translate(20692 -5678)">
    <g id="Group_428" transform="translate(-20692 5678)" opacity="0">
      <path id="Path_332" d="M0,0H100V100H0Z" fill="#fff"/>
    </g>
    <g id="Group_432" transform="translate(-20687 5701)">
      <rect id="Rectangle_174" width="30.53" height="14.367" rx="3.336" transform="translate(5.872 39.403)" fill="#d8e1e6"/>
      <g id="Group_209" transform="translate(8.383 12.924)">
        <rect id="Rectangle_176" width="44.035" height="8.603" rx="2.411" transform="translate(22.88 23.924)" fill="#d8e1e6"/>
        <path id="Path_152" d="M4.426,10.558a5,5,0,0,0-1.351,3.414v.614a4.984,4.984,0,0,1-.3,1.7L1.3,20.348A5,5,0,0,0,2.2,25.3l.783.915A5,5,0,0,0,6.732,27.96l69.954.625a5,5,0,0,0,5.023-5.354l-.237-3.319a4.992,4.992,0,0,0-3.466-4.4l-12.84-4.078a5,5,0,0,1-.783-.325L50.976,4.149A23.865,23.865,0,0,0,40.5,1.472L18.071,1a10.311,10.311,0,0,0-7.743,3.268Z" transform="translate(-0.108 -0.102)" fill="#e83c33"/>
        <path id="Path_152-2" data-name="Path_152" d="M2.575,14.363v.614a4.092,4.092,0,0,1-.246,1.4L.853,20.435a5.889,5.889,0,0,0,1.062,5.839l.783.915a5.89,5.89,0,0,0,4.417,2.056l69.954.625a5.889,5.889,0,0,0,5.921-6.31l-.237-3.319a5.884,5.884,0,0,0-4.085-5.187L65.829,10.976a4.1,4.1,0,0,1-.643-.267L51.78,3.75A24.757,24.757,0,0,0,40.911.973L18.482.5a11.2,11.2,0,0,0-8.414,3.55l-5.9,6.293A5.889,5.889,0,0,0,2.575,14.363Zm8.8-9.1A9.42,9.42,0,0,1,18.445,2.28l22.427.476A22.972,22.972,0,0,1,50.957,5.333l13.407,6.96a5.891,5.891,0,0,0,.924.383l12.84,4.078a4.1,4.1,0,0,1,2.846,3.613l.237,3.32a4.1,4.1,0,0,1-4.127,4.4L7.132,27.46a4.1,4.1,0,0,1-3.078-1.432l-.783-.915a4.1,4.1,0,0,1-.74-4.069l1.476-4.057a5.877,5.877,0,0,0,.354-2.01v-.614a4.1,4.1,0,0,1,1.11-2.8Z" transform="translate(-0.5 -0.494)" fill="#242a3c"/>
        <path id="Path_154" d="M39.96,7.635a1.585,1.585,0,0,0-.965.023h0a1.269,1.269,0,0,0,.178,1.94l5.6,3.885a3.748,3.748,0,0,0,2.936.5,4.044,4.044,0,0,1,1.49.136h0a1.581,1.581,0,0,0,1.469-2.166l-.236-.587a1.583,1.583,0,0,0-1.019-.93Z" transform="translate(29.411 5.059)" fill="#f7a14b"/>
        <path id="Path_154-2" data-name="Path_154" d="M39.095,7.208l-.195.067-.145.146a2.161,2.161,0,0,0,.3,3.3l5.6,3.884a4.653,4.653,0,0,0,3.657.63,3.345,3.345,0,0,1,1.033.127l.244.034a2.473,2.473,0,0,0,2.3-3.389l-.236-.589a2.475,2.475,0,0,0-1.593-1.453l-9.452-2.8A2.478,2.478,0,0,0,39.095,7.208Zm8.919,6.276a2.979,2.979,0,0,1-2.365-.356l-5.575-3.87a.377.377,0,0,1-.154-.4.692.692,0,0,1,.181.028l9.449,2.8a.69.69,0,0,1,.444.405l.236.588a.689.689,0,0,1-.548.936A4.936,4.936,0,0,0,48.014,13.483Z" transform="translate(29.018 4.666)" fill="#242a3c"/>
        <path id="Path_155" d="M9.4,1.14H5.159c-.478,0-.733.493-.416.807l2.1,2.065a.614.614,0,0,0,.83,0L9.818,1.943A.481.481,0,0,0,9.4,1.14Z" transform="translate(2.718 0.013)" fill="#e83c33" stroke="#242a3c" stroke-width="1"/>
        <path id="Path_156" d="M23.8,2.734l-8.51.427a10.277,10.277,0,0,0-6.755,3h0a1.329,1.329,0,0,0,.842,2.266L23.766,9.494a1.329,1.329,0,0,0,1.428-1.326v-4.1a1.329,1.329,0,0,0-1.4-1.329Z" transform="translate(5.497 1.262)" fill="#242a3c" stroke="#242a3c" stroke-width="1"/>
        <rect id="Rectangle_177" width="11.782" height="11.782" rx="3.301" stroke-width="4" fill="#d8e1e6" stroke="#242a3c" transform="translate(7.474 20.56)"/>
        <circle id="Oval" cx="3.569" cy="3.569" r="3.569" transform="translate(61.119 23.63)" fill="#d8e1e6"/>
        <path id="Rectangle_178" d="M9.46,0A9.46,9.46,0,1,1,0,9.46,9.46,9.46,0,0,1,9.46,0Zm0,7.138A2.322,2.322,0,1,0,11.782,9.46,2.322,2.322,0,0,0,9.46,7.138Z" transform="translate(56.261 16.031) rotate(6.154)" fill="#242a3c"/>
        <path id="Path_157" d="M41.737,10.065l-7.57-4.474a18.5,18.5,0,0,0-8.179-2.53l-4.8-.319a1.035,1.035,0,0,0-1.1,1.126L20.6,9.419a1.033,1.033,0,0,0,.944.937l19.584,1.631a1.035,1.035,0,0,0,.612-1.922Z" transform="translate(14.867 1.267)" fill="#242a3c"/>
        <path id="Path_157-2" data-name="Path_157" d="M42.583,9.689l-7.57-4.474A19.389,19.389,0,0,0,26.44,2.562l-4.8-.319A1.927,1.927,0,0,0,19.6,4.34L20.1,9.892a1.925,1.925,0,0,0,1.759,1.745l19.583,1.631a1.927,1.927,0,0,0,1.141-3.579Zm-.846,1.7a.143.143,0,0,1-.148.1L22.007,9.859a.141.141,0,0,1-.129-.128l-.505-5.552a.143.143,0,0,1,.152-.155l4.8.319a17.6,17.6,0,0,1,7.784,2.408l7.57,4.474A.142.142,0,0,1,41.737,11.391Z" transform="translate(14.475 0.875)" fill="#242a3c"/>
        <path id="Path_158" d="M4.489,6.23l2.855.357a1.1,1.1,0,0,1,.648,1.879l-2.32,2.32a1.108,1.108,0,0,1-.566.3l-1.815.357a1.106,1.106,0,0,1-1.322-1.085V8.681a1.11,1.11,0,0,1,.3-.76L3.557,6.566A1.106,1.106,0,0,1,4.489,6.23Z" transform="translate(0.652 4.001)" fill="#e83c33" stroke="#242a3c" stroke-width="1"/>
        <path id="Path_159" d="M47.074,12.6s.692,2.773-.692,4.158-4.158,1.387-4.158,0S40.837,13.982,47.074,12.6Z" transform="translate(32.131 9.002)" fill="#ce2d29"/>
      </g>
      <g id="Group_210" transform="translate(0 3.791)">
        <path id="Path_160" d="M36.388,7.73l-32.265-.6s1.2-5.987,3.592-5.987H35.253s1.2-.908,1.2,1.942S36.388,7.73,36.388,7.73Z" transform="translate(2.347 -0.245)" fill="#d8e1e6"/>
        <rect id="Rectangle_179" width="32.02" height="40.093" rx="3.897" transform="translate(6.714 4.945)" fill="#fff"/>
        <path id="Path_161" d="M2.32,19.863l30.287.216A1.235,1.235,0,0,1,33.7,21.66a9.322,9.322,0,0,0,.159,5.953,1.249,1.249,0,0,1-1.017,1.827H4.337a1.037,1.037,0,0,1-.678-.25,8.584,8.584,0,0,1-2.472-8.257A1.2,1.2,0,0,1,2.32,19.863Z" transform="translate(-0.142 14.554)" fill="#d8e1e6"/>
        <path id="Path_162" d="M38.146.578a2.08,2.08,0,0,1,1.978,2.14V37.565l.009.074a14.056,14.056,0,0,1-.118,3.629c-.376,2.189-1.337,3.723-3.112,4.1l-.007.093H4.7a1.935,1.935,0,0,1-1.267-.468C1.327,43.2,0,40.044.674,35.389A2.1,2.1,0,0,1,2.688,33.5H6.032a.317.317,0,0,0,.288-.358V6.8A5.963,5.963,0,0,1,12.007.577ZM12.053,2.36A4.181,4.181,0,0,0,8.1,6.762V33.1a2.1,2.1,0,0,1-2.025,2.181H2.735a.318.318,0,0,0-.29.318c-.587,4.066.488,6.62,2.154,8.038a.157.157,0,0,0,.1.038H36.249l.244-.047c.908-.174,1.494-1.095,1.763-2.663a12.388,12.388,0,0,0,.108-3.1,1.979,1.979,0,0,1-.025-.264V2.679a.3.3,0,0,0-.242-.317Z" transform="translate(-0.497 -0.577)" fill="#242a3c"/>
        <path id="Path_163" d="M4.122,20.812l26.106.068a.239.239,0,0,1,.235.3,9.078,9.078,0,0,0-.1,5.581l1.708-.516a7.356,7.356,0,0,1,.092-4.539,2.048,2.048,0,0,0-.329-1.82,2.024,2.024,0,0,0-1.61-.793l-26.1-.068Z" transform="translate(2.346 13.898)" fill="#242a3c"/>
        <path id="Line" d="M7.336,14.721H19.828a.892.892,0,1,0,0-1.785H7.336a.892.892,0,0,0,0,1.785Z" transform="translate(4.168 9.119)" fill="#d8e1e6"/>
        <path id="Line-Copy" d="M7.331,11.657l19.63.114a.892.892,0,1,0,.01-1.785L7.341,9.872a.892.892,0,1,0-.01,1.785Z" transform="translate(4.168 6.715)" fill="#d8e1e6"/>
        <path id="Line-Copy-2" d="M7.035,8.613l13.087.107c.329,0,.6-.371.6-.834s-.263-.841-.591-.843L7.042,6.936c-.329,0-.6.371-.6.834S6.707,8.611,7.035,8.613Z" transform="translate(4.168 4.412)" fill="#d8e1e6"/>
        <rect id="Rectangle_182" width="6.417" height="1.785" rx="0.489" transform="translate(20.982 27.955)" fill="#f7a14b"/>
        <circle id="Ellipse_75" cx="2.741" cy="2.741" r="2.741" transform="translate(29.205 25.899)" fill="#f7a14b"/>
      </g>
      <circle id="Ellipse_76" cx="2.513" cy="2.513" r="2.513" transform="translate(60.231 28.51)" fill="#ff7b7b"/>
      <rect id="Rectangle_184" width="16.762" height="4.79" rx="1.342" transform="translate(39.994 28.628)" fill="#ff7b7b"/>
      <path id="Path_164" d="M43.068,12.895l-1.3-2.406-1.249,2.252a3.635,3.635,0,0,1-1.456,1.444L36.8,15.409l2.141,1.185a4.078,4.078,0,0,1,1.606,1.631l1.164,2.152,1.322-2.391a3.107,3.107,0,0,1,1.249-1.23l2.4-1.3L44.3,14.138a3.144,3.144,0,0,1-1.235-1.244Z" transform="translate(27.985 6.515)" fill="#d8e1e6"/>
      <path id="Path_165" d="M49.8,5.615,47.839,2,45.958,5.391a5.5,5.5,0,0,1-2.19,2.188L40.349,9.427l3.232,1.785a6.166,6.166,0,0,1,2.438,2.461l1.758,3.25,2-3.608a4.681,4.681,0,0,1,1.876-1.858l3.626-1.963-3.6-1.986A4.734,4.734,0,0,1,49.8,5.615Z" transform="translate(30.768 -0.145)" fill="#d8e1e6"/>
      <path id="Path_164-2" data-name="Path_164" d="M42.6,9.447l-2.041,3.68a2.745,2.745,0,0,1-1.1,1.091L37.2,15.442l-1.435.776,3.569,1.975a3.183,3.183,0,0,1,1.252,1.273l1.165,2.154.776,1.435,2.112-3.819a2.213,2.213,0,0,1,.889-.875l2.405-1.3,1.435-.776-3.812-2.108a2.251,2.251,0,0,1-.882-.888Zm2.077,7.343a4,4,0,0,0-1.6,1.581l-.534.965-.387-.717A4.968,4.968,0,0,0,40.2,16.632l-.717-.4.829-.448a4.527,4.527,0,0,0,1.813-1.8l.456-.823.522.968a4.041,4.041,0,0,0,1.588,1.6l.958.53Z" transform="translate(27.168 5.697)" fill="#242a3c"/>
      <path id="Path_165-2" data-name="Path_165" d="M48.665.961,46,5.773a4.616,4.616,0,0,1-1.837,1.838L40.743,9.458l-1.436.777,4.661,2.574a5.273,5.273,0,0,1,2.084,2.1l1.758,3.25.776,1.435,2.785-5.036a3.789,3.789,0,0,1,1.518-1.5l3.627-1.964,1.436-.777L52.923,7.541A3.841,3.841,0,0,1,51.4,6.007ZM52.04,11.487A5.572,5.572,0,0,0,49.808,13.7L48.6,15.878l-.982-1.815a7.058,7.058,0,0,0-2.79-2.817l-1.8-1,1.983-1.072a6.4,6.4,0,0,0,2.548-2.544l1.09-1.964,1.187,2.187v0A5.627,5.627,0,0,0,52.06,9.1l2.171,1.2Z" transform="translate(29.95 -0.961)" fill="#242a3c"/>
    </g>
  </g>
</svg>
