<svg xmlns="http://www.w3.org/2000/svg" width="100" height="100" viewBox="0 0 100 100">
  <g id="Group_7415" data-name="Group 7415" transform="translate(21433 -5683)">
    <path id="Path_332" d="M0,0H100V100H0Z" transform="translate(-21433 5683)" fill="#fff" opacity="0"/>
    <g id="Group_7404" data-name="Group 7404" transform="translate(5.049 19.284)">
      <rect id="Rectangle_163" width="21.905" height="13.353" rx="2.909" transform="translate(-21416.26 5737.928)" fill="#d8e1e6"/>
      <rect id="Rectangle_164" width="30.091" height="4.42" rx="1.542" transform="translate(-21386.473 5739.921)" fill="#d8e1e6"/>
      <rect id="Rectangle_165" width="8.201" height="16.155" rx="2.575" stroke-width="1" fill="#242a3c" stroke="#242a3c" transform="translate(-21410.814 5726.699)"/>
      <rect id="Rectangle_166" width="8.201" height="16.155" rx="2.575" transform="translate(-21365.439 5726.699)" fill="#242a3c"/>
      <path id="Rectangle_166-2" data-name="Rectangle_166" d="M62.736,30.377h.78a4.416,4.416,0,0,1,4.431,4.4v8.787a4.416,4.416,0,0,1-4.431,4.4h-.78a4.416,4.416,0,0,1-4.431-4.4V34.777A4.416,4.416,0,0,1,62.736,30.377Zm0,1.431a2.98,2.98,0,0,0-2.99,2.969v8.787a2.98,2.98,0,0,0,2.99,2.969h.78a2.98,2.98,0,0,0,2.99-2.969V34.777a2.98,2.98,0,0,0-2.99-2.969Z" transform="translate(-21424.457 5695.606)" fill="#242a3c"/>
      <path id="Path_139" d="M20.459,3.583l-5.32,10.046a3.313,3.313,0,0,0-.219.507l-1.493,4.412a3.527,3.527,0,0,1-.135.338L10.978,23.9a3.433,3.433,0,0,0-.314,1.561l.316,9a6.184,6.184,0,0,0,6.1,5.916l20.894.426L59.2,40.383a6.178,6.178,0,0,0,6.1-6.134V25.066a3.426,3.426,0,0,0-.5-1.784L62.25,19.09A3.429,3.429,0,0,1,61.9,18.3L60.47,13.618a3.286,3.286,0,0,0-.223-.555L55.464,3.637a3.967,3.967,0,0,0-3.541-2.149H23.968A3.966,3.966,0,0,0,20.459,3.583Z" transform="translate(-21422.258 5696.936)" fill="#fff"/>
      <path id="Path_140" d="M9.442,13.059s3.281-1.5,4.373-.5a3.63,3.63,0,0,1,.748,2.953l-.586,1.614S9.99,17.066,8.9,16.066,9.442,13.059,9.442,13.059Z" transform="translate(-21422.166 5696.441)" fill="#fff"/>
      <path id="Path_141" d="M68.71,13.059s-3.281-1.5-4.373-.5a3.63,3.63,0,0,0-.748,2.953l.586,1.614s3.989-.058,5.082-1.059S68.71,13.059,68.71,13.059Z" transform="translate(-21424.693 5696.441)" fill="#fff"/>
      <path id="Path_142" d="M19.947,10.593l3.231-6.01a1.6,1.6,0,0,1,1.411-.838h27.6a1.6,1.6,0,0,1,1.409.838l3.231,6.01a1.552,1.552,0,0,1-.044,1.547,1.6,1.6,0,0,1-1.367.762H21.357a1.6,1.6,0,0,1-1.367-.762A1.552,1.552,0,0,1,19.947,10.593Z" transform="translate(-21422.678 5696.833)" fill="#242a3c"/>
      <path id="Rectangle_167" d="M18.028,26.329h40.3A2.789,2.789,0,0,1,61.14,29.1v5.232a4.963,4.963,0,0,1-5,4.926H20.218a4.963,4.963,0,0,1-5-4.926V29.1A2.789,2.789,0,0,1,18.028,26.329Z" transform="translate(-21422.475 5695.791)" fill="#d8e1e6"/>
      <path id="Path_143" d="M13.572,19.867l2-1.512a1.154,1.154,0,0,1,1.314-.051l6.866,4.376a1.116,1.116,0,0,1-.144,1.966L19.9,26.307a1.156,1.156,0,0,1-.833.043l-5.31-1.743a1.125,1.125,0,0,1-.778-1.126l.153-2.782A1.119,1.119,0,0,1,13.572,19.867Z" transform="translate(-21422.359 5696.168)" fill="#d8e1e6"/>
      <path id="Path_144" d="M63.757,19.756l-1.618-1.224a1.573,1.573,0,0,0-1.788-.071l-5.992,3.814a1.518,1.518,0,0,0,.2,2.676l2.882,1.287a1.575,1.575,0,0,0,1.133.058l4.859-1.6a1.528,1.528,0,0,0,1.059-1.532l-.124-2.288a1.527,1.527,0,0,0-.612-1.126Z" transform="translate(-21424.244 5696.168)" fill="#d8e1e6"/>
      <path id="Path_145" d="M60.413,32.385l-3.062,4.224a1.637,1.637,0,0,0-.127,1.722,1.686,1.686,0,0,0,1.5.9h1.754a3.366,3.366,0,0,0,2.538-1.15l.958-1.1a3.673,3.673,0,0,0,.764-3.442h0a2.58,2.58,0,0,0-2.486-1.845h-.464a1.691,1.691,0,0,0-1.37.693Z" transform="translate(-21424.404 5695.544)" fill="#242a3c"/>
      <path id="Path_146" d="M25.839,30.362l1.306-.467a3.047,3.047,0,0,1,1.027-.177H50.117a3.056,3.056,0,0,1,.95.152l.28.092a2.981,2.981,0,0,1,1.94,2,2.927,2.927,0,0,1-.582,2.706l-1.748,2.065A3.024,3.024,0,0,1,48.651,37.8H28.427a3.025,3.025,0,0,1-2.225-.97l-1.559-1.689a2.928,2.928,0,0,1-.7-2.7A2.976,2.976,0,0,1,25.839,30.362Z" transform="translate(-21422.867 5695.635)" fill="#242a3c"/>
      <path id="Path_147" d="M17.368,32.385l3.062,4.224a1.637,1.637,0,0,1,.127,1.722,1.686,1.686,0,0,1-1.5.9H17.309a3.367,3.367,0,0,1-2.538-1.15l-.958-1.1a3.676,3.676,0,0,1-.764-3.442h0a2.58,2.58,0,0,1,2.486-1.845H16a1.691,1.691,0,0,1,1.369.693Z" transform="translate(-21422.367 5695.544)" fill="#242a3c"/>
      <path id="Path_139-2" data-name="Path_139" d="M14.466,13.267a4.008,4.008,0,0,0-.264.612l-1.492,4.411a2.814,2.814,0,0,1-.108.268l-2.314,5.018a4.134,4.134,0,0,0-.378,1.88l.316,9a6.9,6.9,0,0,0,6.8,6.6l20.894.426,21.261-.426a6.893,6.893,0,0,0,6.808-6.843V25.032a4.128,4.128,0,0,0-.6-2.15l-2.552-4.191a2.727,2.727,0,0,1-.281-.626L61.125,13.38a3.981,3.981,0,0,0-.27-.671L56.074,3.286A4.689,4.689,0,0,0,51.888.744H23.933a4.688,4.688,0,0,0-4.148,2.477Zm9.468-11.1H51.889a3.245,3.245,0,0,1,2.9,1.758l4.782,9.424a2.591,2.591,0,0,1,.177.439l1.427,4.687a4.134,4.134,0,0,0,.425.949l2.552,4.192a2.725,2.725,0,0,1,.4,1.419v9.183a5.463,5.463,0,0,1-5.4,5.424l-21.232.426-20.865-.426a5.468,5.468,0,0,1-5.39-5.232l-.316-9a2.733,2.733,0,0,1,.25-1.243l2.314-5.018a4.229,4.229,0,0,0,.162-.4l1.494-4.414a2.613,2.613,0,0,1,.173-.4L21.063,3.877A3.244,3.244,0,0,1,23.933,2.164Z" transform="translate(-21422.227 5696.972)" fill="#242a3c"/>
      <path id="Path_140-2" data-name="Path_140" d="M8.846,12.579l.105-.129.152-.07c.067-.031.183-.081.339-.144.257-.1.537-.209.83-.307a10.163,10.163,0,0,1,1.364-.36,2.941,2.941,0,0,1,2.708.512,4.357,4.357,0,0,1,.862,3.634l-.76,2.092-.515-.008c-.178,0-.483-.013-.872-.038-.649-.04-1.3-.106-1.909-.2a5.452,5.452,0,0,1-2.78-1.009,1.939,1.939,0,0,1-.563-1.872,4.232,4.232,0,0,1,.51-1.314A5.878,5.878,0,0,1,8.846,12.579Zm.729,1.479a2.907,2.907,0,0,0-.349.872.575.575,0,0,0,.125.58,4.641,4.641,0,0,0,2.027.647c.561.088,1.166.149,1.773.187l.294.017.376-1.015a2.917,2.917,0,0,0-.53-2.3,1.91,1.91,0,0,0-1.39-.078,8.745,8.745,0,0,0-1.166.309c-.35.116-.65.233-.864.324A5.037,5.037,0,0,0,9.575,14.059Z" transform="translate(-21422.121 5696.477)" fill="#242a3c"/>
      <path id="Path_141-2" data-name="Path_141" d="M68.979,12.381c-.067-.031-.183-.081-.339-.144-.257-.1-.537-.209-.83-.307a10.164,10.164,0,0,0-1.364-.36A2.966,2.966,0,0,0,63.811,12a4.36,4.36,0,0,0-.966,3.6l.617,1.724.174.478.515-.008c.178,0,.483-.013.872-.037.649-.04,1.3-.106,1.91-.2a5.454,5.454,0,0,0,2.78-1.009,1.938,1.938,0,0,0,.562-1.872,4.232,4.232,0,0,0-.51-1.314,5.88,5.88,0,0,0-.529-.786l-.105-.129Zm-.47,1.678a2.908,2.908,0,0,1,.349.872.574.574,0,0,1-.125.58,4.643,4.643,0,0,1-2.027.647c-.561.088-1.166.149-1.773.187l-.291.016-.409-1.125a2.923,2.923,0,0,1,.633-2.272,2.4,2.4,0,0,1,1.317,0,8.746,8.746,0,0,1,1.166.309c.35.117.65.233.864.324A5.045,5.045,0,0,1,68.509,14.059Z" transform="translate(-21424.67 5696.477)" fill="#242a3c"/>
      <path id="Path_142-2" data-name="Path_142" d="M19.275,10.227l3.231-6.01A2.321,2.321,0,0,1,24.553,3h27.6A2.319,2.319,0,0,1,54.2,4.217l3.231,6.011a2.253,2.253,0,0,1-.063,2.244,2.325,2.325,0,0,1-1.984,1.105H21.322a2.325,2.325,0,0,1-1.984-1.105A2.253,2.253,0,0,1,19.275,10.227Zm1.274.664a.852.852,0,0,0,.024.848.879.879,0,0,0,.75.418H55.382a.879.879,0,0,0,.75-.418.852.852,0,0,0,.024-.848L52.925,4.88a.875.875,0,0,0-.772-.459h-27.6a.877.877,0,0,0-.774.46Z" transform="translate(-21422.65 5696.868)" fill="#242a3c"/>
      <path id="Path_143-2" data-name="Path_143" d="M13.095,19.272l2-1.514a1.883,1.883,0,0,1,2.144-.084l6.866,4.376a1.821,1.821,0,0,1-.237,3.208l-3.708,1.661a1.886,1.886,0,0,1-1.359.07l-5.311-1.743a1.835,1.835,0,0,1-1.269-1.837l.153-2.779A1.826,1.826,0,0,1,13.095,19.272Zm.881,1.123,0,0a.414.414,0,0,0-.162.31l-.153,2.781a.415.415,0,0,0,.286.415l5.311,1.743a.425.425,0,0,0,.306-.016l3.706-1.66a.412.412,0,0,0,.053-.725l-6.867-4.377a.424.424,0,0,0-.483.019Z" transform="translate(-21422.334 5696.204)" fill="#242a3c"/>
      <path id="Path_144-2" data-name="Path_144" d="M62.543,17.935a2.3,2.3,0,0,0-2.618-.1l-5.992,3.814a2.223,2.223,0,0,0,.3,3.918l2.882,1.288a2.306,2.306,0,0,0,1.658.085l4.859-1.6A2.238,2.238,0,0,0,65.178,23.1l-.124-2.288a2.237,2.237,0,0,0-.9-1.653Zm1.073,2.957.124,2.282a.818.818,0,0,1-.567.82l-4.86,1.6a.844.844,0,0,1-.607-.031l-2.882-1.288a.813.813,0,0,1-.108-1.433l5.991-3.814a.843.843,0,0,1,.959.038l1.618,1.223A.822.822,0,0,1,63.616,20.892Z" transform="translate(-21424.205 5696.199)" fill="#242a3c"/>
      <path id="Path_145-2" data-name="Path_145" d="M56.73,36.163a2.338,2.338,0,0,0-.182,2.459,2.408,2.408,0,0,0,2.137,1.285h1.754a4.091,4.091,0,0,0,3.084-1.4l.958-1.1a4.375,4.375,0,0,0,.909-4.1,3.3,3.3,0,0,0-3.178-2.36h-.464a2.415,2.415,0,0,0-1.956.989Zm5.018-3.795h.465A1.861,1.861,0,0,1,64.006,33.7a2.971,2.971,0,0,1-.618,2.785l-.959,1.1a2.641,2.641,0,0,1-1.991.9H58.685a.964.964,0,0,1-.855-.515.936.936,0,0,1,.073-.985l3.062-4.225A.967.967,0,0,1,61.748,32.368Z" transform="translate(-21424.359 5695.579)" fill="#242a3c"/>
      <path id="Path_146-2" data-name="Path_146" d="M26.864,29.194a3.776,3.776,0,0,1,1.273-.22H50.083a3.789,3.789,0,0,1,1.178.189l.279.092a3.7,3.7,0,0,1,2.405,2.478,3.629,3.629,0,0,1-.721,3.354l-1.748,2.065a3.75,3.75,0,0,1-2.859,1.32H28.392a3.751,3.751,0,0,1-2.758-1.2l-1.559-1.689a3.63,3.63,0,0,1-.863-3.35,3.689,3.689,0,0,1,2.346-2.57Zm-.814,1.8a2.262,2.262,0,0,0-1.438,1.576,2.226,2.226,0,0,0,.529,2.055L26.7,36.315a2.3,2.3,0,0,0,1.692.737H48.616a2.3,2.3,0,0,0,1.753-.809l1.748-2.065a2.226,2.226,0,0,0,.442-2.057,2.267,2.267,0,0,0-1.476-1.52l-.278-.092a2.325,2.325,0,0,0-.722-.116H28.137a2.316,2.316,0,0,0-.781.135Z" transform="translate(-21422.836 5695.671)" fill="#242a3c"/>
      <path id="Path_147-2" data-name="Path_147" d="M17.919,31.938l3.063,4.225a2.338,2.338,0,0,1,.182,2.459,2.408,2.408,0,0,1-2.137,1.285H17.274a4.093,4.093,0,0,1-3.084-1.4l-.958-1.1a4.378,4.378,0,0,1-.909-4.1,3.3,3.3,0,0,1,3.178-2.36h.464A2.415,2.415,0,0,1,17.919,31.938Zm-1.172.826a.967.967,0,0,0-.783-.4H15.5A1.861,1.861,0,0,0,13.707,33.7a2.974,2.974,0,0,0,.618,2.785l.958,1.1a2.642,2.642,0,0,0,1.991.9h1.752a.964.964,0,0,0,.856-.515.936.936,0,0,0-.073-.985Z" transform="translate(-21422.324 5695.579)" fill="#242a3c"/>
      <g id="Group_205" transform="translate(-21421.049 5714.003)">
        <g id="Group_204">
          <path id="Path_148" d="M6.465,10.69H2.75a1.159,1.159,0,0,0-1.239,1.058V32.379A1.16,1.16,0,0,0,2.75,33.438H33.715a1.16,1.16,0,0,0,1.239-1.059V11.748a1.159,1.159,0,0,0-1.239-1.058Z" transform="translate(-0.79 -0.493)" fill="#fff"/>
          <path id="Path_148-2" data-name="Path_148" d="M2.715,9.946A1.863,1.863,0,0,0,.757,11.66l0,20.685a1.886,1.886,0,0,0,2.007,1.767l30.918,0A1.865,1.865,0,0,0,35.638,32.4l0-20.685a1.885,1.885,0,0,0-2.008-1.766l-27.2,0Zm30.965,1.42a.457.457,0,0,1,.521.4l0,20.577a.44.44,0,0,1-.471.351l-31.013,0a.459.459,0,0,1-.521-.4l0-20.577a.439.439,0,0,1,.47-.349l3.763,0Z" transform="translate(-0.755 -0.458)" fill="#242a3c"/>
          <g id="Group_203" transform="translate(4.702 14.118)">
            <rect id="Rectangle_168" width="5.574" height="5.491" rx="1.267" transform="translate(9.555 8.628)" fill="#e83c33"/>
            <path id="Rectangle_168-2" data-name="Rectangle_168" d="M11.808,8.3H13.73a2.527,2.527,0,0,1,2.546,2.508V12.7a2.527,2.527,0,0,1-2.546,2.508H11.808A2.527,2.527,0,0,1,9.262,12.7V10.809A2.527,2.527,0,0,1,11.808,8.3Zm0,1.42A1.1,1.1,0,0,0,10.7,10.809V12.7a1.1,1.1,0,0,0,1.105,1.089H13.73A1.1,1.1,0,0,0,14.835,12.7V10.809A1.1,1.1,0,0,0,13.73,9.72Z" transform="translate(-0.427 -0.383)" fill="#242a3c"/>
            <rect id="Rectangle_169" width="5.574" height="5.491" rx="1.267" transform="translate(9.555)" fill="#d8e1e6"/>
            <rect id="Rectangle_170" width="5.574" height="5.491" rx="1.267" transform="translate(19.11)" fill="#d8e1e6"/>
            <rect id="Rectangle_171" width="5.574" height="5.491" rx="1.267" fill="#d8e1e6"/>
            <rect id="Rectangle_172" width="5.574" height="5.491" rx="1.267" transform="translate(19.11 8.628)" fill="#d8e1e6"/>
            <rect id="Rectangle_173" width="5.574" height="5.491" rx="1.267" transform="translate(0 8.628)" fill="#d8e1e6"/>
          </g>
          <path id="Path_149" d="M3.1,10.387H33.365A1.894,1.894,0,0,0,34.958,8.3V6.207a1.9,1.9,0,0,0-1.592-2.092H3.1A1.9,1.9,0,0,0,1.512,6.207V8.3A1.9,1.9,0,0,0,3.1,10.392Z" transform="translate(-0.79 -0.19)" fill="#e83c33"/>
          <path id="Path_149-2" data-name="Path_149" d="M33.33,11.063a2.58,2.58,0,0,0,2.313-2.8V6.173a2.581,2.581,0,0,0-2.313-2.8H3.07a2.581,2.581,0,0,0-2.313,2.8V8.265a2.586,2.586,0,0,0,2.313,2.8h.72ZM2.2,8.265V6.173c0-.8.443-1.383.872-1.383H33.33c.429,0,.872.582.872,1.383V8.261c0,.8-.442,1.383-.872,1.383H3.006C2.6,9.589,2.2,9.023,2.2,8.265Z" transform="translate(-0.755 -0.155)" fill="#242a3c"/>
          <path id="Path_150" d="M8.472,0h.873a1.987,1.987,0,0,1,1.389.583,1.928,1.928,0,0,1,.564,1.38V3.525a1.928,1.928,0,0,1-.564,1.38,1.987,1.987,0,0,1-1.389.583H8.472A1.987,1.987,0,0,1,7.083,4.9a1.928,1.928,0,0,1-.563-1.38V1.963A1.928,1.928,0,0,1,7.083.583,1.987,1.987,0,0,1,8.472,0Z" transform="translate(-1.021)" fill="#242a3c"/>
          <path id="Path_151" d="M29.339,0h.873a2.113,2.113,0,0,1,1.953,2.243V4.031a2.113,2.113,0,0,1-1.953,2.243h-.873a2.113,2.113,0,0,1-1.953-2.243V2.243A2.113,2.113,0,0,1,29.339,0Z" transform="translate(-1.983)" fill="#242a3c"/>
        </g>
      </g>
    </g>
  </g>
</svg>
