<svg xmlns="http://www.w3.org/2000/svg" width="100" height="100" viewBox="0 0 100 100">
  <g id="Group_7407" data-name="Group 7407" transform="translate(21137 -5678)">
    <path id="Path_334" d="M0,0H100V100H0Z" transform="translate(-21137 5678)" fill="#fff" opacity="0"/>
    <g id="Group_7406" data-name="Group 7406" transform="translate(6.054 3.591)">
      <path id="Combined-Shape" d="M34.782,15A24.782,24.782,0,1,1,10,39.782,24.782,24.782,0,0,1,34.782,15Zm0,10.2A14.577,14.577,0,1,0,49.359,39.782,14.577,14.577,0,0,0,34.782,25.2Z" transform="translate(-21131.055 5686.799)" fill="#404a64" fill-rule="evenodd"/>
      <path id="Combined-Shape-2" data-name="Combined-Shape" d="M30.849,23A13.849,13.849,0,1,1,17,36.849,13.849,13.849,0,0,1,30.849,23Zm0,4.373a9.475,9.475,0,1,0,9.475,9.475A9.475,9.475,0,0,0,30.849,27.373Z" transform="translate(-21127.846 5690.459)" fill="#d8e1e6" fill-rule="evenodd"/>
      <path id="Rectangle_156" d="M26.817,0A26.817,26.817,0,1,1,0,26.817,26.817,26.817,0,0,1,26.817,0Zm0,4.373A22.443,22.443,0,1,0,49.26,26.817,22.443,22.443,0,0,0,26.817,4.373Z" transform="translate(-21120.305 5697.165) rotate(6.154)" fill="#242a3c"/>
      <path id="Rectangle_157" d="M15.94,0A15.94,15.94,0,1,1,0,15.94,15.94,15.94,0,0,1,15.94,0Zm0,2.915A13.025,13.025,0,1,0,28.965,15.94,13.025,13.025,0,0,0,15.94,2.915Z" transform="translate(-21110.654 5709.142) rotate(6.154)" fill="#242a3c"/>
      <path id="Rectangle_158" d="M10.521,0A10.521,10.521,0,1,1,0,10.521,10.521,10.521,0,0,1,10.521,0Zm0,2.915a7.606,7.606,0,1,0,7.606,7.606A7.606,7.606,0,0,0,10.521,2.915Z" transform="translate(-21105.854 5715.112) rotate(6.154)" fill="#242a3c"/>
      <path id="Line_31" d="M37.408,16.227l-5.7,1.9a1.458,1.458,0,0,0,.922,2.766l5.7-1.9a1.458,1.458,0,0,0-.922-2.766Z" transform="translate(-21121.574 5687.326)" fill="#242a3c"/>
      <path id="Line_32" d="M45.286,25.128,39.6,23.166a1.458,1.458,0,1,0-.952,2.756l5.682,1.962a1.458,1.458,0,1,0,.952-2.756Z" transform="translate(-21118.385 5690.499)" fill="#242a3c"/>
      <path id="Line_33" d="M46.688,33.824,42.318,29.7a1.458,1.458,0,1,0-2,2.119l4.37,4.128a1.458,1.458,0,1,0,2-2.119Z" transform="translate(-21117.383 5693.343)" fill="#242a3c"/>
      <path id="Line_34" d="M43.368,43.646l-2.859-5.289a1.458,1.458,0,1,0-2.565,1.386L40.8,45.033a1.458,1.458,0,1,0,2.565-1.386Z" transform="translate(-21118.342 5697.14)" fill="#242a3c"/>
      <path id="Line_35" d="M18.792,48.154l5.846-1.4a1.458,1.458,0,1,0-.681-2.835l-5.846,1.4a1.458,1.458,0,1,0,.681,2.835Z" transform="translate(-21127.85 5700.015)" fill="#242a3c"/>
      <path id="Line_36" d="M29.333,51.687l3.106-5.146a1.458,1.458,0,1,0-2.5-1.507L26.837,50.18a1.458,1.458,0,1,0,2.5,1.507Z" transform="translate(-21123.434 5700.224)" fill="#242a3c"/>
      <path id="Line_37" d="M11.65,38.781l5.493,2.443a1.458,1.458,0,0,0,1.185-2.664l-5.493-2.443a1.458,1.458,0,0,0-1.185,2.664Z" transform="translate(-21130.689 5696.406)" fill="#242a3c"/>
      <path id="Line_38" d="M10.532,30.638l4,4.488a1.458,1.458,0,1,0,2.177-1.939l-4-4.488a1.458,1.458,0,0,0-2.177,1.939Z" transform="translate(-21130.98 5692.845)" fill="#242a3c"/>
      <path id="Line_39" d="M14.181,21.46l2.392,5.515a1.458,1.458,0,1,0,2.675-1.16L16.855,20.3a1.458,1.458,0,1,0-2.675,1.16Z" transform="translate(-21129.191 5688.821)" fill="#242a3c"/>
      <path id="Line_40" d="M25.027,15.118l-2.074,5.641a1.458,1.458,0,1,0,2.736,1.006l2.074-5.641a1.458,1.458,0,0,0-2.736-1.006Z" transform="translate(-21125.166 5686.414)" fill="#242a3c"/>
      <path id="Path_125" d="M50.44,16.535,48.48,12.913,46.6,16.318a5.513,5.513,0,0,1-2.2,2.187L40.97,20.356l3.238,1.79a6.177,6.177,0,0,1,2.442,2.465l1.759,3.254,2-3.617a4.688,4.688,0,0,1,1.878-1.86l3.631-1.965-3.6-1.993A4.742,4.742,0,0,1,50.44,16.535Z" transform="translate(-21116.877 5685.844)" fill="#d8e1e6"/>
      <path id="Path_124" d="M42.9,25.73l-1.3-2.4L40.35,25.584a3.644,3.644,0,0,1-1.458,1.446l-2.268,1.227,2.146,1.187a4.082,4.082,0,0,1,1.617,1.634l1.166,2.156,1.324-2.4a3.112,3.112,0,0,1,1.245-1.232l2.407-1.3L44.14,26.985A3.15,3.15,0,0,1,42.9,25.73Z" transform="translate(-21118.861 5690.61)" fill="#d8e1e6"/>
      <path id="Path_124-2" data-name="Path_124" d="M42.082,22.287l-1.893,3.421a2.917,2.917,0,0,1-1.167,1.158l-2.268,1.227-1.172.634,3.312,1.831A3.353,3.353,0,0,1,40.222,31.9l1.167,2.157.634,1.173,1.968-3.562a2.383,2.383,0,0,1,.953-.943l2.407-1.3,1.172-.634L44.97,26.824a2.422,2.422,0,0,1-.957-.965Zm2.169,7.157a3.841,3.841,0,0,0-1.536,1.52l-.679,1.229-.532-.983a4.81,4.81,0,0,0-1.9-1.925l-.98-.542,1.1-.593a4.373,4.373,0,0,0,1.749-1.735l.6-1.088.664,1.228A3.88,3.88,0,0,0,44.264,28.1l1.222.676Z" transform="translate(-21119.346 5690.133)" fill="#242a3c"/>
      <path id="Path_125-2" data-name="Path_125" d="M48.965,11.871l-2.528,4.571a4.785,4.785,0,0,1-1.912,1.9L41.1,20.192l-1.173.634,4.4,2.435a5.447,5.447,0,0,1,2.153,2.174l1.759,3.254.634,1.172,2.645-4.783a3.96,3.96,0,0,1,1.586-1.571l3.632-1.965,1.172-.634-4.77-2.638a4.013,4.013,0,0,1-1.586-1.6Zm3.452,10.353a5.416,5.416,0,0,0-2.169,2.149l-1.355,2.45-1.126-2.081a6.905,6.905,0,0,0-2.73-2.756L42.966,20.84l2.252-1.217a6.242,6.242,0,0,0,2.494-2.476l1.238-2.238,1.325,2.45a5.47,5.47,0,0,0,2.163,2.186l2.438,1.348Z" transform="translate(-21117.35 5685.365)" fill="#242a3c"/>
      <path id="Path_126" d="M40.429,12.068l-.964-1.783-.933,1.676a2.727,2.727,0,0,1-1.087,1.077l-1.691.914,1.6.885a3.042,3.042,0,0,1,1.206,1.217l.875,1.6.985-1.784a2.332,2.332,0,0,1,.927-.918l1.793-.971L41.36,13a2.341,2.341,0,0,1-.931-.934Z" transform="translate(-21119.266 5684.641)" fill="#d8e1e6"/>
      <path id="Path_126-2" data-name="Path_126" d="M39.952,9.245l-1.579,2.838a2,2,0,0,1-.8.791l-1.691.914-1.174.635,2.772,1.53a2.313,2.313,0,0,1,.916.925l.876,1.606.636,1.166L41.539,16.7a1.6,1.6,0,0,1,.637-.63l1.792-.971,1.173-.635L42.19,12.84a1.614,1.614,0,0,1-.643-.644Zm1.528,5.545A3.062,3.062,0,0,0,40.263,16l-.344.623-.239-.438a3.769,3.769,0,0,0-1.493-1.506l-.435-.24.517-.279a3.457,3.457,0,0,0,1.379-1.365l.286-.514.332.614a3.072,3.072,0,0,0,1.222,1.227l.613.338Z" transform="translate(-21119.736 5684.164)" fill="#242a3c"/>
    </g>
  </g>
</svg>
